<?xml version="1.0" encoding="utf-8"?>
<!-- Generator: Adobe Illustrator 22.1.0, SVG Export Plug-In . SVG Version: 6.00 Build 0)  -->
<svg version="1.1" id="Layer_1" xmlns="http://www.w3.org/2000/svg" xmlns:xlink="http://www.w3.org/1999/xlink" x="0px" y="0px"
	 width="50px" height="54.2px" viewBox="0 0 50 54.2" style="enable-background:new 0 0 50 54.2;" xml:space="preserve">
<style type="text/css">
	.st0{fill:url(#SVGID_1_);}
	.st1{fill:#EFE6FF;}
</style>
<g id="wallet">
	
		<linearGradient id="SVGID_1_" gradientUnits="userSpaceOnUse" x1="6.6022" y1="41.9937" x2="46.298" y2="2.298" gradientTransform="matrix(1 0 0 -1 0 60.1667)">
		<stop  offset="0" style="stop-color:#E68CBC"/>
		<stop  offset="1" style="stop-color:#8366B3"/>
	</linearGradient>
	<path class="st0" d="M7.3,20.8c-4,0-7.3,2.8-7.3,6.2v20.8c0,3.4,3.3,6.2,7.3,6.2H50v-25H7.3c-1.7,0-3.1-1-3.1-2.1
		C4.2,26,5.6,25,7.3,25h5.5c0,0,1-5.2,6-5.2S25,25,25,25h22.9v-4.2H7.3z"/>
	<path class="st1" d="M35.4,0c-4.6,0-8.3,3.7-8.3,8.3s3.7,8.3,8.3,8.3c4.6,0,8.3-3.7,8.3-8.3S40,0,35.4,0z M35.4,12.5
		c-2.3,0-4.2-1.9-4.2-4.2s1.9-4.2,4.2-4.2c2.3,0,4.2,1.9,4.2,4.2S37.7,12.5,35.4,12.5z"/>
	<path class="st1" d="M18.8,16.7c-4.6,0-8.3,3.7-8.3,8.3h4.2c0-2.3,1.9-4.2,4.2-4.2s4.2,1.9,4.2,4.2h4.2
		C27.1,20.4,23.4,16.7,18.8,16.7z"/>
</g>
</svg>
