<?xml version="1.0" encoding="utf-8"?>
<!-- Generator: Adobe Illustrator 22.1.0, SVG Export Plug-In . SVG Version: 6.00 Build 0)  -->
<svg version="1.1" id="Layer_1" xmlns="http://www.w3.org/2000/svg" xmlns:xlink="http://www.w3.org/1999/xlink" x="0px" y="0px"
	 width="50px" height="56.6px" viewBox="0 0 50 56.6" style="enable-background:new 0 0 50 56.6;" xml:space="preserve">
<style type="text/css">
	.st0{fill:url(#SVGID_1_);}
	.st1{fill:#EFE6FF;}
</style>
<linearGradient id="SVGID_1_" gradientUnits="userSpaceOnUse" x1="9.2001" y1="46.0817" x2="40.7981" y2="14.4837" gradientTransform="matrix(1 0 0 -1 0 58.5664)">
	<stop  offset="0" style="stop-color:#E68CBC"/>
	<stop  offset="1" style="stop-color:#8366B3"/>
</linearGradient>
<path class="st0" d="M37.5,23.2l8-4.6l-1.9-3.3l-8,4.6l-8.7-5V5.7h-3.8v9.3l-8.7,5l-8-4.6l-1.9,3.3l8,4.6v10.1l-8,4.6l1.9,3.3l8-4.6
	l8.7,5v9.3h3.8v-9.3l8.7-5l8,4.6l1.9-3.3l-8-4.6C37.5,33.3,37.5,23.2,37.5,23.2z M33.7,33.3l-8.7,5l-8.7-5V23.2l8.7-5l8.7,5
	L33.7,33.3L33.7,33.3z"/>
<path class="st1" d="M28.8,16c0,2.1-1.7,3.8-3.8,3.8s-3.8-1.7-3.8-3.8c0-2.1,1.7-3.8,3.8-3.8S28.8,13.9,28.8,16z M28.8,3.8
	c0,2.1-1.7,3.8-3.8,3.8s-3.8-1.7-3.8-3.8S22.9,0,25,0S28.8,1.7,28.8,3.8z M28.8,52.8c0,2.1-1.7,3.8-3.8,3.8s-3.8-1.7-3.8-3.8
	c0-2.1,1.7-3.8,3.8-3.8S28.8,50.7,28.8,52.8z M25,36.8c-2.1,0-3.8,1.7-3.8,3.8c0,2.1,1.7,3.8,3.8,3.8s3.8-1.7,3.8-3.8
	C28.8,38.5,27.1,36.8,25,36.8z M16.3,18.9c1.8,1,2.4,3.3,1.4,5.2c-1,1.8-3.3,2.4-5.2,1.4c-1.8-1-2.4-3.3-1.4-5.2
	C12.2,18.5,14.5,17.8,16.3,18.9z M5.7,12.8c1.8,1,2.4,3.3,1.4,5.2s-3.3,2.4-5.2,1.4c-1.8-1-2.4-3.3-1.4-5.2S3.9,11.7,5.7,12.8z
	 M48.1,37.3c1.8,1,2.4,3.3,1.4,5.2c-1,1.8-3.3,2.4-5.2,1.4c-1.8-1-2.4-3.3-1.4-5.2S46.3,36.2,48.1,37.3z M32.3,32.5
	c-1,1.8-0.4,4.1,1.4,5.2c1.8,1,4.1,0.4,5.2-1.4s0.4-4.1-1.4-5.2C35.7,30.1,33.4,30.7,32.3,32.5z M12.5,31.1c1.8-1,4.1-0.4,5.2,1.4
	c1,1.8,0.4,4.1-1.4,5.2c-1.8,1-4.1,0.4-5.2-1.4S10.7,32.2,12.5,31.1z M1.9,37.3c1.8-1,4.1-0.4,5.2,1.4s0.4,4.1-1.4,5.2
	c-1.8,1-4.1,0.4-5.2-1.4C-0.5,40.6,0.1,38.3,1.9,37.3z M44.3,12.8c1.8-1,4.1-0.4,5.2,1.4c1,1.8,0.4,4.1-1.4,5.2
	c-1.8,1-4.1,0.4-5.2-1.4C41.9,16.1,42.5,13.8,44.3,12.8z M32.3,24c1,1.8,3.3,2.4,5.2,1.4c1.8-1,2.4-3.3,1.4-5.2
	c-1-1.8-3.3-2.4-5.2-1.4C31.9,19.9,31.3,22.2,32.3,24z"/>
</svg>
