<svg width="69" height="15" viewBox="0 0 69 15" fill="none" xmlns="http://www.w3.org/2000/svg">
<path fill-rule="evenodd" clip-rule="evenodd" d="M17.432 1.07149C16.8683 1.16043 16.7888 1.18334 16.3935 1.369C15.5351 1.77228 14.8647 2.40032 14.4435 3.19594C14.2453 3.57041 14.11 3.87928 14.11 3.95771C14.11 3.99723 14.09 4.0416 14.0656 4.05632C14.041 4.07082 14.0085 4.15345 13.9935 4.23987C13.9783 4.3265 13.9203 4.62507 13.8648 4.90345C13.6816 5.82228 13.7428 7.18833 14.0096 8.14668C14.0373 8.24614 14.0798 8.39794 14.1039 8.48415C14.3799 9.46711 15.2315 10.4688 16.1428 10.8821C16.7796 11.171 17.0395 11.2209 17.9096 11.2209C20.2227 11.2209 21.7715 9.8851 21.7617 7.89837C21.7545 6.42824 21.1091 5.49217 19.7298 4.95097C19.2317 4.75543 18.0298 4.69004 17.5711 4.83364C16.8818 5.04916 16.2545 5.42426 15.8368 5.87064C15.4628 6.27034 15.3888 5.75457 15.6632 4.66228C16.1922 2.55717 18.6022 1.74642 20.2299 3.12613C20.3788 3.25229 20.4211 3.26806 20.4592 3.21213C20.4847 3.17428 20.6121 2.97412 20.7421 2.76743C20.8724 2.56054 21.0163 2.33262 21.0625 2.26092C21.1899 2.06244 21.1756 2.02879 20.8709 1.81139C19.8849 1.10828 18.7484 0.863751 17.432 1.07149ZM10.9484 1.23948C10.7879 1.36185 8.14333 3.935 8.1246 3.98693C8.11044 4.02562 8.25572 4.1871 8.85119 4.79495C9.05941 5.00752 8.99668 5.04579 9.86724 4.17238C10.3558 3.68227 10.667 3.40515 10.704 3.42722C10.7485 3.45372 10.7631 4.38495 10.7631 7.21818C10.7631 9.77051 10.7796 10.9841 10.8151 11.0051C10.8776 11.0426 12.4197 11.0361 12.4589 10.9982C12.5233 10.9362 12.514 1.22161 12.4495 1.18103C12.3195 1.09882 11.0689 1.1476 10.9484 1.23948ZM57.7662 2.64674C57.7638 3.02605 57.7653 3.44846 57.7697 3.58597C57.7793 3.89967 57.7246 3.93247 57.2208 3.91397C56.5898 3.89063 56.5339 3.9104 56.5132 4.16292C56.4849 4.50732 56.5027 4.51762 57.1217 4.51762C57.6009 4.51762 57.673 4.52856 57.7163 4.60677C57.747 4.66207 57.7673 5.71589 57.7699 7.39165C57.7745 10.4469 57.7773 10.4751 58.1275 10.8601C58.5453 11.3193 59.6689 11.3767 60.1897 10.9652L60.336 10.8496L60.2269 10.6254C60.1017 10.3683 60.0877 10.3639 59.8325 10.5068C59.3836 10.7585 58.8162 10.6309 58.5982 10.2295C58.4745 10.0022 58.4059 4.72262 58.5246 4.58427C58.5684 4.53339 58.7465 4.51762 59.2777 4.51762H59.9734L59.9433 3.96317L59.3189 3.9514C58.3717 3.93332 58.4743 4.054 58.4584 2.93774L58.4449 1.9859L57.7703 1.95731L57.7662 2.64674ZM3.79425 3.79328C3.65703 3.81557 3.44838 3.84942 3.33098 3.86876C3.21359 3.8879 3.10556 3.92259 3.09075 3.94551C3.07615 3.96843 3.0217 3.98714 2.96987 3.98714C2.79671 3.98714 2.10214 4.3265 1.75736 4.57944C1.35878 4.87191 1.35987 4.85236 1.70705 5.42678C1.97189 5.86475 2.00827 5.88178 2.23587 5.67447C3.08203 4.9045 4.9767 4.78696 5.62553 5.46421C5.94483 5.79768 5.98796 5.9335 6.00495 6.66373C6.0239 7.47091 5.9995 7.53336 5.74075 7.33551C5.32736 7.01907 5.15072 6.91709 4.8299 6.81007C2.80281 6.13388 1.00986 7.0813 1.00006 8.83381C0.993742 9.9856 1.50144 10.6683 2.68454 11.0981C3.58037 11.4238 5.09192 11.0945 5.78845 10.4221C5.94157 10.2743 6.01736 10.3708 6.01736 10.7144V11.0306L7.54089 11.0039L7.55635 8.76148C7.57726 5.71526 7.53087 5.39083 6.9746 4.69844C6.64398 4.28697 6.13824 3.9945 5.50814 3.84984C5.1969 3.77856 4.10854 3.74261 3.79425 3.79328ZM32.818 3.7731C32.7631 3.78529 32.5945 3.82062 32.4434 3.85152C28.982 4.55778 28.7804 9.86323 32.1687 11.0813C33.2662 11.4759 34.7388 11.1616 35.5808 10.3531C35.8927 10.0535 35.8955 10.0266 35.6401 9.80373L35.4399 9.62901L35.135 9.92063C34.1636 10.8498 32.4397 10.8281 31.4585 9.8748C29.9369 8.39668 30.2906 5.47619 32.0936 4.62885C33.1384 4.1379 34.3962 4.29748 35.1485 5.01636L35.4307 5.28612L35.8925 4.94571L35.7851 4.8C35.2548 4.08113 33.7563 3.56242 32.818 3.7731ZM52.1255 3.77499C51.5272 3.87949 50.8285 4.23714 50.3785 4.6688C50.0063 5.02582 49.9776 5.00963 49.9776 4.44424C49.9776 3.92196 49.948 3.88369 49.5542 3.8982C49.2499 3.90934 49.2739 3.45414 49.2893 8.95429L49.303 13.801H49.9525L49.9656 11.908C49.9802 9.78607 49.9625 9.86576 50.335 10.2444C51.001 10.9215 51.698 11.2209 52.6093 11.2209C53.0673 11.2209 53.1817 11.2034 53.7503 11.0468C56.3609 10.3275 56.7678 5.52539 54.3351 4.1461C53.8048 3.84543 52.7426 3.66713 52.1255 3.77499ZM63.9897 3.77331C63.9348 3.78592 63.7549 3.82083 63.5902 3.85068C63.4254 3.88075 63.2679 3.9207 63.2404 3.93962C63.213 3.95855 63.1322 3.98735 63.0612 4.00375C62.6578 4.09648 61.8955 4.72977 61.5305 5.27539C61.3656 5.52182 61.2872 5.67425 61.1149 6.08489C60.722 7.02075 60.8797 8.77241 61.4259 9.54049C61.476 9.61092 61.517 9.69229 61.517 9.72131C61.517 9.75032 61.5379 9.77408 61.5636 9.77408C61.5893 9.77408 61.6243 9.81719 61.6418 9.86996C61.659 9.92274 61.8428 10.1279 62.0499 10.326C63.4321 11.6473 65.8489 11.5245 67.0929 10.0697C68.1421 8.84285 68.3052 6.75961 67.456 5.43645C67.3785 5.31576 67.2805 5.15786 67.238 5.08574C66.9936 4.67027 66.1978 4.09837 65.6382 3.93626C65.5285 3.90451 65.3847 3.85846 65.3189 3.83428C65.1859 3.78508 64.1465 3.73756 63.9897 3.77331ZM39.7618 3.85068C39.2399 4.02057 38.8468 4.27625 38.3299 4.78171C37.9128 5.18961 37.8884 5.17489 37.8884 4.51384C37.8884 3.89736 37.8407 3.83597 37.4278 3.92007L37.2141 3.96359V11.0039H37.8634L37.8893 5.69339L38.1372 5.42489C38.6015 4.92195 39.3579 4.54664 40.0399 4.48104L40.4112 4.44529L40.4406 3.79433L40.1762 3.79812C40.0307 3.80022 39.8441 3.82398 39.7618 3.85068ZM23.0023 3.92806C22.9064 3.93836 22.8113 3.97221 22.7908 4.00312C22.7379 4.08365 22.7431 5.13368 22.7967 5.16564C22.8213 5.18015 23.6082 5.19297 24.5456 5.19423C25.4828 5.19529 26.2833 5.20853 26.3242 5.22367C26.4891 5.28486 26.4081 5.41206 25.4846 6.54409C25.4517 6.58446 25.3585 6.70368 25.2774 6.80923C25.1964 6.91478 25.1176 7.01213 25.1019 7.02538C25.0864 7.03862 24.8429 7.34244 24.5609 7.70051C24.2788 8.05858 23.8014 8.6553 23.5002 9.02662C22.7498 9.95154 22.7453 9.96058 22.7629 10.5352L22.7771 11.0039L28.5967 11.0287V9.82244L28.4094 9.82055C28.3064 9.8195 27.4997 9.82034 26.6165 9.82223C25.2008 9.8256 25.0013 9.81677 24.93 9.74801C24.836 9.65697 24.8296 9.66938 25.2221 9.17947C25.3885 8.97174 25.5922 8.7106 25.6745 8.59937C25.7568 8.48814 25.9592 8.2331 26.124 8.03272C26.2889 7.83214 26.4688 7.60863 26.5237 7.53567C26.5786 7.46292 26.6574 7.36326 26.6986 7.31406C26.7398 7.26507 26.9983 6.93875 27.2729 6.58909C27.5478 6.23922 27.9412 5.74448 28.1472 5.48965L28.5218 5.02603L28.5388 4.53823C28.5636 3.81662 28.8623 3.8858 25.7819 3.89862C24.3489 3.90451 23.0983 3.91776 23.0023 3.92806ZM41.4168 3.97705C41.3972 4.00754 42.0892 5.69213 42.2824 6.08489C42.3085 6.13808 42.3887 6.32248 42.4603 6.49489C42.532 6.66731 42.635 6.90216 42.6892 7.01675C42.7435 7.13135 42.8535 7.38492 42.9338 7.58004C43.0142 7.77516 43.1227 8.02852 43.1752 8.14311C43.2276 8.2577 43.3313 8.49256 43.4054 8.66497C43.4796 8.83738 43.5589 9.02178 43.5818 9.07497C43.6047 9.12796 43.6678 9.26904 43.7221 9.38826C43.9425 9.87227 44.4824 11.1769 44.4824 11.2255C44.4824 11.2541 44.419 11.4114 44.3415 11.5747C44.264 11.7381 44.135 12.0129 44.0551 12.1853C43.5371 13.3012 43.1667 13.5671 42.398 13.3748L42.1389 13.3098L42.0868 13.454C41.9537 13.8226 41.9984 13.8994 42.3874 13.9702C42.9428 14.0713 43.5787 13.9097 43.9765 13.5657C44.0967 13.462 44.4824 12.982 44.4824 12.9362C44.4824 12.9225 44.5412 12.786 44.6129 12.6328C44.7564 12.3258 44.8455 12.1273 44.9217 11.9442C44.9494 11.8779 45.0193 11.7209 45.077 11.5951C45.1347 11.4694 45.1818 11.3571 45.1818 11.3456C45.1818 11.334 45.2604 11.1599 45.3567 10.9589C45.4527 10.7581 45.5316 10.5817 45.5316 10.567C45.5316 10.5525 45.5753 10.4478 45.6287 10.3342C45.6823 10.2209 45.7698 10.0213 45.8232 9.89078C45.8766 9.76042 45.9903 9.50663 46.0756 9.32686C46.161 9.14709 46.2309 8.98667 46.2309 8.97006C46.2309 8.93557 46.7214 7.82247 46.9355 7.37167C47.015 7.2041 47.0801 7.04009 47.0801 7.0075C47.0801 6.97491 47.0991 6.92761 47.1226 6.90237C47.1459 6.87714 47.2015 6.76529 47.2461 6.65364C47.2908 6.54199 47.375 6.34687 47.4334 6.21966C47.4918 6.09246 47.5626 5.93434 47.5905 5.8679C47.6183 5.80167 47.6615 5.70937 47.6861 5.66269C47.7107 5.61601 47.7971 5.4169 47.8782 5.2201C47.9592 5.02329 48.0738 4.75753 48.133 4.62969C48.1922 4.50185 48.2735 4.32503 48.3138 4.23693C48.4279 3.98714 48.3793 3.93899 48.0119 3.93899C47.6268 3.93899 47.663 3.89925 47.3321 4.68646C47.1871 5.03128 46.9052 5.69318 46.706 6.15743C46.5067 6.62147 46.1462 7.46776 45.9053 8.03798C45.6642 8.60841 45.4477 9.09558 45.4242 9.12081C45.4009 9.14583 45.3817 9.19608 45.3817 9.23225C45.3817 9.26841 45.3233 9.42127 45.2519 9.57224C45.1805 9.72299 45.0875 9.92253 45.0454 10.0153C45.0032 10.1082 44.9605 10.1929 44.9507 10.2039C44.9187 10.2392 44.7322 10.0506 44.7322 9.98308C44.7322 9.94692 44.7102 9.87984 44.6834 9.8338C44.6567 9.78775 44.5772 9.60903 44.5064 9.43662C44.3646 9.09032 44.34 9.03355 44.1877 8.70177C44.13 8.57603 44.0827 8.4606 44.0827 8.44546C44.0827 8.43011 44.0244 8.29428 43.9527 8.14353C43.8813 7.99277 43.7665 7.72827 43.6977 7.55586C43.6286 7.38345 43.53 7.15069 43.4783 7.03883C43.4267 6.92697 43.2357 6.48207 43.0543 6.0502C42.8726 5.61854 42.7038 5.24449 42.679 5.21947C42.6544 5.19424 42.6341 5.14503 42.6341 5.11034C42.6341 5.07565 42.5873 4.94424 42.53 4.8185C42.2249 4.14799 42.1552 4.00817 42.1097 3.976C42.0424 3.92806 41.4473 3.92911 41.4168 3.97705ZM64.8635 4.37465C66.6292 4.59584 67.7507 6.85948 67.0248 8.7373C66.7758 9.38111 66.7072 9.4896 66.3078 9.87038C65.7193 10.4316 65.2468 10.6181 64.4144 10.6181C62.3668 10.6181 61.1842 8.67401 61.8086 6.33426C62.1656 4.99743 63.4184 4.19362 64.8635 4.37465ZM53.1664 4.46338C54.1968 4.77288 54.784 5.44865 55.0685 6.65238C55.1386 6.94884 55.1388 8.13659 55.0689 8.39416C55.0393 8.50328 54.9912 8.67948 54.9618 8.78566C54.8444 9.21164 54.6041 9.60209 54.2491 9.94292C53.9289 10.2503 53.793 10.3424 53.4992 10.4509C53.4443 10.4711 53.3206 10.5171 53.2246 10.5529C52.9904 10.6401 51.8655 10.6399 51.6259 10.5525C50.9479 10.3052 50.3596 9.91559 50.0688 9.52135C49.9553 9.36765 49.8602 6.42067 49.9499 5.84309C50.0873 4.95853 52.0345 4.12318 53.1664 4.46338ZM18.6872 6.25814C19.532 6.58783 19.8973 7.00855 19.9848 7.75287C20.2397 9.92168 16.7777 10.5903 15.8126 8.55858C15.3262 7.53462 15.4384 7.18265 16.4536 6.54956C17.0258 6.19254 18.1448 6.04662 18.6872 6.25814ZM4.73995 7.62755C5.7107 7.85127 6.01736 8.16455 6.01736 8.93284V9.46879L5.83005 9.65024C4.79287 10.6549 2.82895 10.3843 2.5421 9.19713C2.27987 8.11283 3.39393 7.31721 4.73995 7.62755Z" fill="white" stroke="white" stroke-width="0.25"/>
</svg>
