<svg width="75" height="18" viewBox="0 0 75 18" fill="none" xmlns="http://www.w3.org/2000/svg">
<path d="M0 7.88382L4.01793 5.91287L0 3.94192V7.88382Z" fill="white"/>
<path d="M0 11.8257H12.0538V9.85478L8.03586 7.88383L0 11.8257Z" fill="white"/>
<path d="M0 0L8.03586 3.9419L12.0538 1.97095V0H0Z" fill="white"/>
<path d="M8.03586 3.9419L4.01793 5.91287L8.03586 7.88383L12.0538 9.85478V1.97095L8.03586 3.9419Z" fill="white"/>
<path d="M69.6788 7.14448C69.3379 7.14708 68.9973 7.16822 68.6587 7.20779C68.0342 7.30379 67.6907 7.61628 67.6907 8.15753C67.6907 8.62729 68.0051 8.88259 68.4735 8.88259C69.1147 8.88259 69.6788 8.45572 69.6788 7.62445V7.14448ZM68.0384 9.95896C66.8871 9.95896 66.1647 9.25432 66.1647 8.17999C66.1647 7.19962 66.8059 6.60119 67.8697 6.3561C68.4671 6.24369 69.0749 6.19371 69.683 6.207C69.683 5.36551 69.3353 5.07957 68.4443 5.07957C67.8724 5.09032 67.3094 5.22125 66.7934 5.46355V4.29732C67.3789 4.06059 68.0068 3.94115 68.64 3.94602C70.5137 3.94602 71.1903 4.77729 71.1903 6.34384V8.65997H71.9293V9.83028H69.8475L69.733 9.24615H69.7101C69.5039 9.47905 69.2475 9.66402 68.9594 9.78766C68.6714 9.9113 68.3589 9.97051 68.0446 9.961L68.0384 9.95896ZM49.2353 7.14448C48.895 7.14712 48.5551 7.16825 48.2173 7.20779C47.5927 7.30379 47.2492 7.61628 47.2492 8.15753C47.2492 8.62729 47.5636 8.88259 48.0299 8.88259C48.6711 8.88259 49.2353 8.45572 49.2353 7.62445V7.14448ZM47.5969 9.95896C46.4456 9.95896 45.7232 9.25432 45.7232 8.17999C45.7232 7.19962 46.3644 6.60119 47.4282 6.3561C48.0256 6.24369 48.6334 6.19371 49.2415 6.207C49.2415 5.36551 48.8939 5.07957 48.0049 5.07957C47.433 5.09038 46.87 5.22131 46.354 5.46355V4.29732C46.9396 4.06075 47.5674 3.94132 48.2006 3.94602C50.0743 3.94602 50.7529 4.77729 50.7529 6.34384V8.65997H51.4899V9.83028H49.4081L49.2894 9.24615H49.2686C49.0621 9.47871 48.8057 9.66345 48.5177 9.78706C48.2297 9.91068 47.9173 9.97008 47.6031 9.961L47.5969 9.95896ZM26.1145 7.14448C25.7728 7.14711 25.4316 7.16824 25.0923 7.20779C24.4677 7.30379 24.1263 7.61628 24.1263 8.15753C24.1263 8.62729 24.4428 8.88259 24.9091 8.88259C25.5503 8.88259 26.1145 8.45572 26.1145 7.62445V7.14448ZM24.474 9.961C23.3227 9.961 22.6003 9.25636 22.6003 8.18204C22.6003 7.20167 23.2415 6.60323 24.3054 6.35814C24.9027 6.24568 25.5105 6.19571 26.1186 6.20904C26.1186 5.36756 25.773 5.08161 24.8799 5.08161C24.308 5.09217 23.745 5.22311 23.229 5.46559V4.29732C23.8146 4.06065 24.4424 3.94121 25.0756 3.94602C26.9493 3.94602 27.628 4.77729 27.628 6.34384V8.65997H28.367V9.83028H26.2852L26.1644 9.24615H26.1436C25.9373 9.47882 25.6808 9.66364 25.3928 9.78726C25.1048 9.91089 24.7924 9.97023 24.4781 9.961H24.474ZM56.6424 6.93206C56.6424 5.85774 56.1011 5.14289 55.2643 5.14289C54.4274 5.14289 53.8965 5.86591 53.8965 6.92185C53.8965 7.97779 54.4274 8.72124 55.233 8.72124C56.0658 8.72124 56.6445 7.99617 56.6445 6.93002L56.6424 6.93206ZM58.1975 6.93002C58.1975 8.72124 57.1566 9.95896 55.6452 9.95896C54.7438 9.95896 54.2109 9.60561 53.9402 9.2441H53.9111V11.6685L52.3913 12.2812V5.21642H51.621V4.0461H53.7924L53.8902 4.8018H53.9111C54.1068 4.50361 54.5627 3.93785 55.6369 3.93785C57.2108 3.93785 58.1892 5.12042 58.1892 6.93206L58.1975 6.93002ZM36.0073 3.93785C35.6433 3.92314 35.281 3.99384 34.9504 4.14411C34.6198 4.29437 34.3305 4.51984 34.1066 4.8018H34.0837L33.9859 4.0461H31.7188V5.21642H32.5661V9.83028H34.0983V7.15673C34.0983 5.72703 34.8686 5.19803 35.5306 5.19803C36.1551 5.19803 36.4424 5.59222 36.4424 6.4766V9.83028H37.9622V6.13551C37.9622 4.68742 37.2897 3.93989 35.999 3.93989L36.0073 3.93785ZM42.9586 8.58644C41.3951 8.58644 40.4728 7.55296 40.4728 5.89042C40.4728 4.27077 41.3951 3.17398 42.8274 3.17398C43.1744 3.17298 43.5202 3.21206 43.8579 3.2904V4.92435L45.2173 4.37085V2.44687C44.5102 2.05267 43.7071 1.8543 42.894 1.87294C40.4937 1.87294 38.8553 3.32103 38.8553 5.91085C38.8553 8.36177 40.3126 9.961 42.894 9.961C43.714 9.96045 44.5212 9.76195 45.2444 9.38299L44.9092 8.12689C44.3061 8.43176 43.637 8.5894 42.9586 8.58644ZM74.261 8.66201V1.51348L72.7308 2.12621V9.83028H75V8.65997H74.261V8.66201ZM20.5102 7.48761C20.5102 6.74212 19.9564 6.33567 19.0009 6.33567H17.5436V8.64975H19.0217C20.0855 8.64975 20.5206 8.17999 20.5206 7.48761H20.5102ZM17.5352 5.17557H18.7739C19.6545 5.17557 20.0772 4.76708 20.0772 4.18499C20.0772 3.51302 19.6608 3.16377 18.8614 3.16377H17.5352V5.17557ZM22.1278 7.56522C22.1278 9.06641 20.9224 9.82211 19.1091 9.82211H15.9593V3.17194H15.0037V1.99958H18.8489C19.8898 1.99958 20.4144 2.13846 20.8266 2.39377C21.0915 2.55659 21.308 2.78507 21.4542 3.05616C21.6004 3.32725 21.6712 3.63137 21.6594 3.93785C21.6594 4.75483 21.1389 5.38798 20.2916 5.61061V5.63307C21.4324 5.82506 22.1278 6.56034 22.1278 7.57339V7.56522ZM58.6306 5.21642H59.4633V9.83028H60.9893V4.0461H58.6306V5.21642ZM59.4633 3.04326H60.9893V1.62785H59.4571V3.0453L59.4633 3.04326ZM28.5127 5.21642H29.3455V9.83028H30.8777V4.0461H28.5127V5.21642ZM29.3455 3.04326H30.8777V1.62785H29.3455V3.0453V3.04326ZM64.1891 4.04406H65.7421V5.21642H64.1891V7.76946C64.1891 8.40875 64.3306 8.79068 64.9593 8.79068C65.1935 8.77815 65.4261 8.74604 65.6547 8.69469V9.81394C65.2637 9.91124 64.8629 9.96536 64.4597 9.9753C63.2647 9.9753 62.6672 9.40954 62.6672 8.16365V5.21642H61.8345V4.0461H62.6672V3.05347L64.1891 2.44074V4.05018V4.04406Z" fill="white"/>
<path d="M18.3617 14.1398L17.402 17.1238L16.4527 14.1398H15.6429L16.9502 17.9285H17.8038L19.1112 14.1398H18.3617Z" fill="white"/>
<path d="M19.7378 14.1398V17.9285H22.2755V17.3199H20.5039V16.2456H22.0986V15.6492H20.5039V14.7301H22.2193V14.1398H19.7378Z" fill="white"/>
<path d="M25.5732 14.1398V16.748L23.9265 14.1398H23.1042V17.9285H23.8286V15.1835L25.5607 17.9285H26.2977V14.1398H25.5732Z" fill="white"/>
<path d="M26.9368 14.1398V14.7301H28.0443V17.9285H28.8063V14.7301H29.9055V14.1398H26.9368Z" fill="white"/>
<path d="M32.8283 14.1398H33.5944V16.4253C33.5944 16.9339 33.5153 17.279 33.2551 17.565C32.9949 17.8509 32.6306 17.9898 32.056 17.9898C31.4814 17.9898 31.1129 17.853 30.8568 17.565C30.6008 17.277 30.5113 16.938 30.5113 16.4314V14.1398H31.2774V16.4682C31.2774 16.797 31.3148 16.9461 31.4356 17.0809C31.603 17.2346 31.8236 17.32 32.0528 17.32C32.2821 17.32 32.5027 17.2346 32.6701 17.0809C32.7929 16.9379 32.8283 16.7889 32.8283 16.4682V14.1398Z" fill="white"/>
<path d="M36.33 14.8383C36.1836 14.7453 36.0107 14.701 35.8366 14.7117H35.2954V15.8943H35.8304C36.0064 15.905 36.1814 15.8607 36.33 15.7676C36.4019 15.7124 36.46 15.6419 36.4999 15.5614C36.5399 15.4809 36.5606 15.3925 36.5606 15.303C36.5606 15.2134 36.5399 15.1251 36.4999 15.0446C36.46 14.9641 36.4019 14.8935 36.33 14.8383ZM36.6756 17.9285L35.7742 16.4559H35.2933V17.9285H34.5292V14.1398H35.922C36.2657 14.1196 36.6068 14.2091 36.8942 14.3951C37.0549 14.5216 37.1776 14.6884 37.2494 14.8778C37.3212 15.0673 37.3394 15.2722 37.3021 15.471C37.2647 15.6697 37.1732 15.8549 37.0373 16.0067C36.9013 16.1585 36.726 16.2714 36.5299 16.3334L37.5521 17.9265H36.6756V17.9285Z" fill="white"/>
<path d="M38.2286 14.1398V17.9285H40.7643V17.3199H38.9948V16.2456H40.5894V15.6492H38.9948V14.7301H40.7102V14.1398H38.2286Z" fill="white"/>
<path d="M42.6692 17.9816C42.1365 17.9814 41.6246 17.7786 41.2411 17.4159L41.6241 16.8848C41.9051 17.1545 42.2733 17.3192 42.6651 17.3505C43.121 17.3505 43.3521 17.1728 43.3521 16.8848C43.3521 16.5968 43.0668 16.4927 42.9128 16.4314C42.7587 16.3701 42.2695 16.1986 42.1654 16.1577C41.9493 16.0949 41.7598 15.965 41.6254 15.7875C41.491 15.6099 41.419 15.3944 41.4201 15.1733C41.4201 14.6831 41.772 14.0806 42.8066 14.0806C43.2876 14.0821 43.7504 14.2606 44.1036 14.581L43.7747 15.0957C43.5034 14.8498 43.1526 14.7052 42.7837 14.6872C42.3882 14.6872 42.1592 14.8301 42.1592 15.112C42.1592 15.3938 42.4402 15.4939 42.5755 15.5532C42.7109 15.6124 43.2001 15.7799 43.3104 15.8228C43.8871 16.027 44.1015 16.3946 44.1015 16.8174C44.1015 17.3607 43.706 18 42.6442 18" fill="white"/>
</svg>
