<svg width="70" height="25" viewBox="0 0 70 25" fill="none" xmlns="http://www.w3.org/2000/svg">
<path d="M7.87821 0.135145C7.91169 0.255896 7.96749 0.509474 8.00096 0.714751C8.0456 0.907952 8.15719 1.24606 8.25762 1.46341C8.44732 1.84981 8.44732 1.84981 7.75547 3.4075C7.37606 4.25276 7.06361 5.03764 7.06361 5.13424C7.06361 5.27914 7.04129 5.27914 6.96318 5.13424C6.88507 5.00142 6.82927 5.09802 6.71768 5.47235C6.58378 5.95535 6.59494 5.99158 6.89623 6.32968C7.34258 6.83684 7.87821 6.83684 8.06792 6.34176C8.24646 5.85875 8.45848 5.67762 9.18381 5.41197C9.98725 5.11009 10.6345 4.44596 10.6345 3.92673C10.6345 3.70938 10.5787 3.43165 10.5117 3.28675C10.4113 3.08147 10.4225 3.05732 10.5898 3.09355C10.8353 3.14185 11.2705 3.92673 11.371 4.48219C11.4826 5.14632 10.9469 6.23308 10.1993 6.82476C9.18381 7.64587 8.96063 7.91152 8.50311 8.88961C8.20182 9.54166 8.05676 10.0367 8.00096 10.6043C7.95633 11.039 7.90053 11.4012 7.87821 11.4012C7.8559 11.4012 7.39838 11.0269 6.86275 10.556C6.18205 9.96429 5.71338 9.43299 5.27818 8.75678L4.66444 7.79077H3.66013L0 11.8963L0.31245 13.0434C0.658378 14.2993 0.591424 14.251 1.45066 13.8525C1.8747 13.6714 1.8747 13.6472 1.47298 12.6329C1.35023 12.3189 1.19401 12.1257 1.08242 12.1257C0.803444 12.1257 0.993146 11.9688 1.4395 11.8239C1.66268 11.7514 2.25411 11.2684 2.87901 10.6284C3.47043 10.0488 3.97258 9.57789 3.98374 9.60204C4.03954 9.66241 5.50136 12.645 5.50136 12.6933C5.50136 12.7174 5.40093 12.7295 5.27818 12.7295C5.15543 12.7295 4.83182 12.8502 4.55285 12.9951C4.15113 13.2125 4.03954 13.3332 3.98374 13.6593C3.89447 14.2027 4.06186 14.6736 4.76487 15.8086C5.26702 16.6056 5.41209 16.9558 5.56831 17.7648L5.75801 18.755L6.38292 18.8999C6.72884 18.9723 7.54345 19.3346 8.21298 19.6848C9.38467 20.3247 9.41815 20.3368 9.90914 20.204C10.4671 20.047 10.4559 20.0953 10.2885 19.0448L10.1658 18.284L9.37351 18.0184C8.72629 17.8131 8.52543 17.789 8.25762 17.8976C7.93401 18.0305 7.87821 17.9942 7.1752 17.3905C6.43871 16.7384 6.28249 16.4607 5.64643 14.6857C5.53484 14.3838 6.1709 14.5528 8.2353 15.386C9.38467 15.8569 10.3443 16.2192 10.3555 16.2071C10.3555 16.183 10.4336 15.7603 10.5006 15.2653C10.5787 14.734 10.7795 14.0457 10.9916 13.5989C11.4044 12.7053 12.3306 11.6427 13.0113 11.2926C14.4062 10.568 16.9393 10.6526 18.7024 11.4978L19.1822 11.7273L19.8071 11.1477L19.2938 10.6646L18.7805 10.1696L19.026 9.80731C19.2492 9.45714 19.2492 9.39676 19.1153 8.66018C19.0372 8.23755 19.0037 7.85115 19.0483 7.81492C19.0818 7.77869 19.2938 7.88737 19.5282 8.05642C19.9522 8.38245 20.2423 8.38245 19.9745 8.04435C19.8964 7.9236 19.1487 6.98174 18.323 5.9312C17.4972 4.89274 16.7831 3.87843 16.7161 3.6973C16.6603 3.51618 16.5152 3.23845 16.4148 3.08147C16.1582 2.69507 16.2251 2.64677 16.6826 2.88827C17.2183 3.19015 16.9504 2.94865 15.935 2.22414C15.444 1.87396 14.8972 1.43926 14.7075 1.25813C14.4843 1.0287 14.1607 0.871727 13.7032 0.775126C12.6766 0.557774 12.5873 0.521549 12.7658 0.400797C12.8551 0.340422 13.1006 0.292121 13.3126 0.280046C13.6251 0.280046 13.5693 0.243821 13.0113 0.110995C12.5315 0.00231855 12.1967 -0.0218317 11.9512 0.0626941C11.2929 0.255896 9.49626 0.557774 9.25076 0.497398C9.12802 0.473248 8.74861 0.328347 8.425 0.183445C7.87821 -0.0459819 7.83358 -0.058057 7.87821 0.135145Z" fill="white"/>
<path d="M19.0037 0.461149C19.0037 0.497374 19.1041 0.5819 19.2269 0.654351C19.3496 0.726802 20.5 1.52415 20.5 1.5C20.5 1.46377 19.3496 0.60605 19.2269 0.5336C19.1041 0.461149 19.0037 0.436999 19.0037 0.461149Z" fill="white"/>
<path d="M4.38547 0.919989L3.99491 1.04074L4.94342 1.46337C5.46789 1.6928 6.20438 2.00675 6.59494 2.16373L7.29796 2.4656L7.46534 2.04298C7.55461 1.81355 7.62157 1.57205 7.62157 1.51167C7.62157 1.40299 5.32282 0.763013 4.96574 0.787163C4.86531 0.787163 4.59749 0.847539 4.38547 0.919989Z" fill="white"/>
<path d="M19.7848 0.980391C21.0793 2.01885 21.4921 2.39318 22.1617 3.11769C23.2776 4.31312 24.1703 5.67761 24.9402 7.34398C25.6321 8.85337 25.7325 8.85337 25.0742 7.34398C23.9583 4.79613 21.8381 2.19998 19.8406 0.968316C19.5058 0.763039 19.5058 0.763039 19.7848 0.980391Z" fill="white"/>
<path d="M30.6983 3.09354C30.2854 3.19014 30.1626 3.27467 30.1626 3.44372C30.1626 3.63692 30.2519 3.67314 30.6648 3.67314H31.1669V6.25722C31.1669 8.80507 31.1669 8.85337 30.9214 9.0345C30.7875 9.14317 30.5532 9.2277 30.4193 9.2277C30.2296 9.2277 30.1626 9.30015 30.1626 9.48128C30.1626 9.72278 30.1961 9.72278 32.6511 9.68655L35.1507 9.65033L35.6863 9.28807C36.434 8.79299 36.925 8.06849 37.0812 7.21115C37.3936 5.60516 36.7576 4.05955 35.4743 3.33504C34.9275 3.02109 34.8271 3.00901 33.064 2.98486C32.0485 2.97279 30.9884 3.02109 30.6983 3.09354ZM34.258 3.56447C34.682 3.73352 35.1507 4.24067 35.4408 4.82028C35.8091 5.55686 35.7867 7.25945 35.4073 8.08056C34.961 9.04657 34.0013 9.45713 33.1198 9.04657C32.8854 8.94997 32.6845 8.74469 32.6176 8.56357C32.4948 8.21339 32.4614 3.63692 32.5841 3.51617C32.6957 3.38334 33.912 3.41957 34.258 3.56447Z" fill="white"/>
<path d="M42.5714 3.17808C42.5937 3.26261 42.7834 3.40751 42.9954 3.47996L43.386 3.61279V9.15527L42.9731 9.26394C42.7276 9.32432 42.5491 9.44507 42.5491 9.54167C42.5491 9.6745 42.8615 9.71072 44.2341 9.71072C45.4727 9.71072 45.9079 9.6745 45.8744 9.56582C45.8186 9.40884 45.6512 9.30017 45.1714 9.14319L44.8366 9.04659L44.7697 6.45044H45.495C46.4324 6.45044 46.7337 6.58327 46.8899 7.0542C47.1131 7.7787 47.2916 7.41645 47.3251 6.17271C47.3586 5.0618 47.3474 5.00143 47.1242 5.00143C46.9568 5.00143 46.901 5.08595 46.901 5.29123C46.901 5.77423 46.5105 5.96744 45.5843 5.96744H44.7697L44.8366 3.61279H47.0684L47.2916 4.05957C47.4144 4.32522 47.6041 4.51842 47.7156 4.51842C47.8719 4.51842 47.9053 4.39767 47.9053 3.75769V3.00903H45.2272C43.0177 3.00903 42.5491 3.03318 42.5714 3.17808Z" fill="white"/>
<path d="M49.1328 3.26256C48.9654 3.72142 49.2779 4.2648 49.7019 4.27687C50.1706 4.27687 50.5165 3.50406 50.1929 3.14181C50.0925 3.03313 49.8358 2.94861 49.6238 2.94861C49.3113 2.94861 49.2221 3.00898 49.1328 3.26256Z" fill="white"/>
<path d="M49.4899 5.36368C49.3449 5.49651 49.0547 5.62933 48.8427 5.67763C48.374 5.77423 48.3517 6.02781 48.7981 6.12441L49.1328 6.19686V7.70625C49.1328 9.28809 49.1105 9.34847 48.5637 9.34847C48.4521 9.34847 48.3517 9.43299 48.3517 9.5296C48.3517 9.6745 48.5749 9.71072 49.6461 9.71072C50.6281 9.71072 50.9294 9.6745 50.896 9.55375C50.8625 9.48129 50.6951 9.38469 50.5165 9.34847L50.1929 9.28809L50.2264 7.50098C50.2487 6.51082 50.2376 5.58103 50.2041 5.41198C50.1148 5.0618 49.847 5.03765 49.4899 5.36368Z" fill="white"/>
<path d="M57.078 5.36368C56.9329 5.49651 56.6093 5.66556 56.375 5.73801C55.884 5.90706 55.817 6.08819 56.1853 6.26931C56.5089 6.42629 56.6205 6.96967 56.587 8.17718C56.5535 9.11904 56.5424 9.16734 56.2522 9.32432C55.6943 9.60205 55.9175 9.71072 57.0557 9.71072C58.1939 9.71072 58.4394 9.58997 57.8926 9.32432C57.6025 9.19149 57.6025 9.17942 57.6359 7.79078L57.6694 6.39007L58.1939 6.11234C58.6179 5.88291 58.763 5.85876 58.9527 5.96744C59.3098 6.17271 59.3991 6.58327 59.3991 7.97191V9.23979L59.0643 9.36054C58.4506 9.60205 58.7184 9.71072 59.8454 9.71072C60.7381 9.71072 60.9613 9.6745 60.9613 9.54167C60.9613 9.44507 60.8497 9.34847 60.7158 9.32432C60.4703 9.28809 60.4592 9.23979 60.4034 7.65795C60.3699 6.76439 60.3029 5.95536 60.2583 5.87083C59.9124 5.3033 58.6179 5.2067 57.9707 5.71386L57.6136 5.97951V5.55688C57.6136 5.0618 57.4686 5.0135 57.078 5.36368Z" fill="white"/>
<path d="M39.5138 5.37576C38.5653 5.65348 37.9739 6.51082 37.9739 7.60965C37.9739 8.92584 38.7773 9.83147 39.949 9.83147C40.6186 9.83147 41.0091 9.69865 41.5224 9.26394C41.8126 9.03452 41.8572 8.92584 41.7679 8.80509C41.6675 8.67226 41.5671 8.68434 41.1765 8.87754C40.5851 9.15527 40.3507 9.16734 39.8821 8.88961C39.4246 8.62396 39.0898 8.00813 39.0898 7.4406V7.03005L40.507 7.12665L41.913 7.21117L41.8349 6.80062C41.6452 5.75008 40.5293 5.0618 39.5138 5.37576ZM40.5739 5.99159C40.8083 6.29346 40.8194 6.64364 40.5851 6.74024C40.4847 6.77647 40.1052 6.81269 39.737 6.81269H39.0675L39.1344 6.47459C39.1791 6.29346 39.3353 6.02781 39.5027 5.87083C39.8374 5.54481 40.2615 5.59311 40.5739 5.99159Z" fill="white"/>
<path d="M63.3605 5.35159C62.5459 5.58102 61.9879 6.0761 61.6866 6.83683C61.0617 8.4549 62.2 9.96429 63.9408 9.80731C64.5768 9.74693 64.9674 9.50543 65.3579 8.94998C65.5253 8.70847 65.5476 8.58772 65.4584 8.49112C65.3579 8.38244 65.2352 8.43075 64.9897 8.66017C64.3202 9.276 63.6395 9.23978 63.0927 8.56357C62.1776 7.44059 62.7356 5.59309 63.9408 5.71384C64.0189 5.71384 64.2086 5.94327 64.3648 6.221C64.6214 6.64363 64.6996 6.704 65.012 6.66778C65.2463 6.64363 65.3803 6.5591 65.4026 6.4142C65.4695 6.01572 65.3245 5.65347 65.0455 5.50857C64.6549 5.32744 63.7622 5.23084 63.3605 5.35159Z" fill="white"/>
<path d="M67.6343 5.36368C66.7081 5.65348 66.1837 6.37799 66.1167 7.46475C66.0386 8.86546 66.8309 9.8194 68.0695 9.83147C68.739 9.83147 69.1296 9.69865 69.6429 9.26394C69.9219 9.03452 69.9777 8.92584 69.8884 8.80509C69.788 8.67226 69.6764 8.68434 69.2523 8.88961C68.6274 9.19149 68.1365 9.10697 67.7459 8.64811C67.3553 8.20133 67.2103 7.86323 67.2103 7.41645V7.03005L70 7.1991V6.90929C70 6.51082 69.576 5.84668 69.1631 5.59311C68.7614 5.3516 68.0472 5.24293 67.6343 5.36368ZM68.6051 5.90706C68.9176 6.24516 68.9734 6.63157 68.7056 6.74024C68.4266 6.86099 67.3442 6.82477 67.2661 6.69194C67.1768 6.53497 67.5004 5.88291 67.7347 5.73801C68.0583 5.53273 68.315 5.58103 68.6051 5.90706Z" fill="white"/>
<path d="M52.514 5.61722C51.9337 5.93118 51.4762 6.48663 51.4762 6.88511C51.4762 7.22321 51.532 7.23529 52.0788 6.99379C52.3578 6.86096 52.5028 6.71606 52.5475 6.47456C52.6591 5.97948 52.9157 5.7259 53.3286 5.7259C53.6634 5.7259 53.708 5.7742 53.8196 6.22098C54.0316 7.07831 54.0651 7.04209 52.5586 7.77867C51.9784 8.06847 51.7552 8.2496 51.6213 8.55148C51.4762 8.90165 51.465 8.99826 51.599 9.30013C51.744 9.62616 51.811 9.65031 52.4917 9.68654C53.1054 9.71069 53.2728 9.67446 53.6076 9.43296L54.0093 9.14316L54.2436 9.42089C54.5672 9.83144 55.2033 9.81936 55.4488 9.40881C55.5492 9.23976 55.5939 9.02241 55.5604 8.91373C55.4934 8.72053 55.4711 8.72053 55.2814 8.91373C55.181 9.02241 55.0471 9.07071 55.0136 9.02241C54.969 8.98618 54.9355 8.37035 54.9355 7.65792C54.9355 6.18475 54.8239 5.70175 54.4222 5.49647C53.9647 5.27912 53.0385 5.3395 52.514 5.61722ZM53.8977 8.22545C53.8307 8.86543 53.5629 9.22768 53.1389 9.22768C52.8934 9.22768 52.8041 9.15523 52.7483 8.92581C52.7148 8.75675 52.7037 8.5394 52.7372 8.4428C52.8376 8.18922 53.7192 7.52509 53.8419 7.60962C53.9089 7.65792 53.9312 7.92357 53.8977 8.22545Z" fill="white"/>
<path d="M25.0742 7.38247C25.0742 7.45492 25.6433 9.23976 25.7102 9.43296C25.9669 10.1454 26.257 12.174 26.257 13.2245C26.257 15.0117 25.7883 16.9437 25.0184 18.3685C24.8063 18.755 24.1814 19.564 23.6347 20.1677C22.8089 21.0613 22.4406 21.3632 21.6818 21.7737C20.2758 22.5224 19.3943 22.7639 17.7985 22.8363C15.4217 22.9571 13.3015 22.3896 11.2705 21.1096L10.5787 20.6749L10.9023 21.0492C11.3487 21.5564 12.6319 22.5103 13.5358 22.9933C17.5642 25.191 21.9273 24.3216 24.4158 20.8198C26.3686 18.0667 26.9712 13.9128 25.978 10.0126C25.7325 9.03448 25.0742 7.06852 25.0742 7.38247Z" fill="white"/>
<path d="M33.1978 15.6758C30.4416 16.6539 30.1515 20.9043 32.7515 22.1601C33.2536 22.4017 33.5215 22.4379 34.5704 22.4379C36.1438 22.4379 36.5679 22.2688 36.6794 21.5926C36.7241 21.327 36.791 21.0009 36.8245 20.844C36.9249 20.373 36.4897 20.53 35.8983 21.17C35.2511 21.8703 34.6374 22.1118 33.9678 21.9066C33.3541 21.7254 33.0193 21.3994 32.7292 20.687C32.5172 20.1557 32.4948 19.89 32.5283 18.8999C32.573 17.5233 32.8742 16.7022 33.4991 16.3037C34.2245 15.8449 35.3738 16.1467 35.9987 16.9558C36.3 17.3301 36.7464 17.4509 36.7464 17.1369C36.7464 17.0403 36.6794 16.7022 36.6125 16.4003C36.4339 15.7 36.2777 15.6275 34.7936 15.5551C34.0124 15.5188 33.5326 15.5551 33.1978 15.6758Z" fill="white"/>
<path d="M52.3912 15.7C51.9226 16.0502 52.2127 16.9558 52.7818 16.9558C53.0162 16.9558 53.3732 16.4969 53.3732 16.183C53.3732 15.6758 52.793 15.386 52.3912 15.7Z" fill="white"/>
<path d="M67.1545 15.6517C67.0429 15.7241 66.7417 15.857 66.4962 15.9294C65.9717 16.0985 65.8601 16.2917 66.2395 16.4003C66.485 16.4607 66.5185 16.5452 66.5854 17.3905C66.6189 17.9097 66.6524 19.0569 66.6524 19.9746C66.6524 21.6892 66.5854 21.967 66.1614 22.0515C66.0386 22.0636 65.927 22.1602 65.8936 22.2326C65.8601 22.3534 66.1502 22.3896 67.0876 22.3896C68.0919 22.3896 68.3262 22.3534 68.3262 22.2205C68.3262 22.1119 68.1923 22.0273 68.0249 22.0032L67.7125 21.967L67.6567 18.7791C67.6232 16.8109 67.5563 15.5792 67.4893 15.5551C67.4335 15.5309 67.2773 15.5792 67.1545 15.6517Z" fill="white"/>
<path d="M56.732 17.5595C56.5423 17.8252 56.2299 18.1271 56.0513 18.2237C55.6384 18.4531 55.605 18.767 55.9955 18.767H56.2745V20.3127C56.2745 21.7737 56.2857 21.8824 56.5312 22.1239C56.8883 22.4862 57.6917 22.4862 58.1046 22.136C58.3501 21.9307 58.3724 21.8462 58.272 21.7134C58.1827 21.5926 58.1046 21.5685 58.0153 21.6651C57.8479 21.8462 57.4239 21.81 57.3458 21.5926C57.3123 21.4839 57.2788 20.8077 57.2788 20.0832V18.767H57.781C58.205 18.767 58.2831 18.7308 58.2831 18.5376C58.2831 18.3444 58.1939 18.2961 57.8145 18.2599C57.3793 18.2237 57.3346 18.1995 57.3681 17.9218C57.4016 17.5475 57.3011 17.0765 57.1784 17.0765C57.1338 17.0765 56.9329 17.2939 56.732 17.5595Z" fill="white"/>
<path d="M45.5061 17.9942C45.2049 18.1512 44.8812 18.284 44.8143 18.284C44.5688 18.284 44.6581 18.598 44.937 18.7429C45.1937 18.8636 45.2049 18.924 45.283 20.7232C45.3164 21.7375 45.3388 22.9813 45.3164 23.4763C45.283 24.3699 45.2718 24.382 44.9259 24.5631C44.2898 24.8891 44.5018 24.9857 45.8409 24.9978C46.8564 25.0099 47.1242 24.9737 47.1242 24.8529C47.1242 24.7563 47.0238 24.6838 46.9122 24.6838C46.4658 24.6838 46.3431 24.3699 46.3431 23.2348V22.1601L46.7559 22.3533C48.095 22.9571 49.5791 21.7979 49.5791 20.1557C49.5791 18.5255 48.3294 17.6441 46.8452 18.2237C46.5997 18.3203 46.3877 18.4048 46.3765 18.4048C46.3542 18.4048 46.3431 18.2357 46.3431 18.0425C46.3431 17.6078 46.2426 17.6078 45.5061 17.9942ZM47.6821 18.924C48.374 19.2983 48.6976 20.5904 48.2959 21.4236C48.0839 21.8703 47.816 22.0273 47.2469 22.0273C46.477 22.0273 46.3431 21.7737 46.3431 20.2764C46.3431 19.0689 46.3542 18.9965 46.5997 18.8878C46.9568 18.7308 47.3585 18.7429 47.6821 18.924Z" fill="white"/>
<path d="M52.5363 18.0546C52.3578 18.1754 52.0341 18.3203 51.8444 18.3565C51.3981 18.4531 51.3646 18.7308 51.7887 18.7912C52.0899 18.8274 52.0899 18.8395 52.1457 19.9142C52.1792 20.5059 52.1792 21.2062 52.1569 21.4598C52.1234 21.8583 52.0788 21.9307 51.7998 21.9911C51.6213 22.0273 51.4762 22.136 51.4762 22.2205C51.4762 22.3534 51.7329 22.3896 52.7037 22.3896C53.6968 22.3896 53.9312 22.3534 53.9312 22.2205C53.9312 22.1119 53.7973 22.0273 53.6299 22.0032L53.3174 21.967L53.284 19.878C53.2505 17.5716 53.2505 17.5596 52.5363 18.0546Z" fill="white"/>
<path d="M40.0159 18.2961C39.4357 18.6101 38.9781 19.1655 38.9781 19.564C38.9781 19.9021 38.967 19.9021 39.5249 19.6606C39.8597 19.5157 39.9824 19.3829 40.0382 19.1293C40.161 18.5497 40.8305 18.1392 41.143 18.4652C41.4889 18.8516 41.4443 19.9746 41.076 19.9746C41.0202 19.9746 40.6074 20.1557 40.1498 20.3851C39.246 20.8319 38.9112 21.2787 39.0451 21.8462C39.1344 22.2568 39.4022 22.3896 40.1164 22.3896C40.6743 22.3896 41.1318 22.1964 41.3438 21.8583C41.3885 21.7858 41.5335 21.8704 41.7009 22.0636C41.8795 22.2688 42.0915 22.3896 42.2924 22.3896C42.6718 22.3896 42.8057 22.293 42.9842 21.9428C43.1516 21.5926 43.1404 21.4236 42.9396 21.4236C42.8503 21.4236 42.7722 21.4719 42.7722 21.5443C42.7722 21.6047 42.6941 21.6651 42.6048 21.6651C42.4709 21.6651 42.4374 21.4357 42.4374 20.3489C42.4374 18.3565 42.27 18.0546 41.1541 18.0426C40.6966 18.0426 40.3395 18.1271 40.0159 18.2961ZM41.355 21.1459C41.1765 21.9549 40.3284 22.1843 40.2279 21.4357C40.1833 21.1217 40.44 20.7715 40.931 20.4455C41.2546 20.2161 41.2657 20.2161 41.3662 20.4455C41.422 20.5783 41.4108 20.8802 41.355 21.1459Z" fill="white"/>
<path d="M61.4077 18.2358C60.8162 18.5135 60.2918 19.1172 60.2918 19.5157C60.2918 19.9142 60.2806 19.9021 60.8274 19.6727C61.1733 19.5157 61.2738 19.395 61.363 19.0448C61.4969 18.4652 62.0214 18.1875 62.4008 18.4773C62.6128 18.6342 62.6463 18.7671 62.6128 19.2742L62.5794 19.878L61.7982 20.2161C60.4926 20.7715 60.024 21.4357 60.4703 22.1239C60.6154 22.3534 60.7381 22.3896 61.3519 22.3896C61.9545 22.3896 62.1107 22.3413 62.4008 22.0756L62.7467 21.7617L62.9811 22.0756C63.1373 22.293 63.3159 22.3896 63.5613 22.3896C63.9854 22.3896 64.1193 22.3051 64.2978 21.9187C64.4094 21.7013 64.4094 21.6047 64.309 21.496C64.2086 21.3994 64.1528 21.3994 64.1193 21.5081C64.0858 21.5926 64.0077 21.6651 63.9184 21.6651C63.818 21.6651 63.7622 21.2787 63.7287 20.1436C63.6841 18.6584 63.6729 18.6101 63.3716 18.3324C63.1262 18.1029 62.9476 18.0426 62.4343 18.0426C62.0884 18.0546 61.6197 18.1392 61.4077 18.2358ZM62.4008 21.7013C62.2669 21.8221 62.0214 21.9066 61.8652 21.8824C61.6197 21.8462 61.5751 21.7738 61.5416 21.3994C61.5081 20.9768 61.5416 20.9164 62.0437 20.5783L62.5794 20.204L62.6128 20.844C62.6463 21.3874 62.6128 21.5202 62.4008 21.7013Z" fill="white"/>
</svg>
