<svg width="117" height="117" viewBox="0 0 117 117" fill="none" xmlns="http://www.w3.org/2000/svg">
  <path d="M47.1294 5.11483C49.486 2.91056 52.8929 1.09749 55.4655 0.678463C60.2152 -0.0948602 65.742 1.46085 69.4629 4.61856C71.6697 6.49168 75.1661 11.52 75.1661 12.8211C75.1661 13.1901 72.9121 14.4034 72.226 14.4034C71.9714 14.4034 71.2973 13.5263 70.7284 12.454C69.2675 9.70161 66.343 6.81408 63.8201 5.63361C58.9516 3.35523 53.4376 4.36652 49.4153 8.27567C46.1656 11.434 44.6315 14.9566 43.1049 22.7655C42.2227 27.2766 41.7868 28.7886 40.7821 30.8205C38.1194 36.2066 33.8325 39.809 27.72 41.7975C24.7415 42.7662 23.9491 42.6243 23.0929 40.9688C22.4775 39.7786 22.6782 39.1073 23.6504 39.1073C26.5314 39.1073 31.3812 36.8999 33.8538 34.4632C36.9305 31.4312 38.276 28.4543 39.0447 22.9791C40.2495 14.3962 42.4826 9.46176 47.1294 5.11483Z" fill="white"/>
  <path d="M76.5732 15.2662C78.5827 14.2605 81.7742 13.1936 83.7655 12.8615C93.1689 11.2936 101.541 16.3463 103.752 24.9241C104.447 27.6168 104.384 31.7277 103.597 35.0787C103.239 36.6034 102.843 37.9146 102.717 37.9928C102.59 38.0706 101.744 37.9168 100.836 37.6504C100.12 37.4405 99.6841 37.348 99.4749 37.0794C99.1374 36.6457 99.3896 35.7529 100.002 33.1658C101.574 26.5171 98.8602 20.4925 93.0532 17.7413C91.0534 16.7941 90.7861 16.7494 87.2053 16.7628C83.7342 16.7759 83.2652 16.8516 80.9511 17.7747C78.2084 18.8689 76.1867 20.0353 71.4699 23.2465C69.6652 24.4751 67.2561 25.7847 65.7414 26.361C63.2816 27.2969 62.877 27.3564 58.9053 27.3682C55.252 27.3792 54.3892 27.2801 52.4948 26.6331C49.4209 25.5833 46.1703 23.9041 45.7723 23.1602C45.407 22.4778 45.8401 20.2201 46.403 19.872C46.5687 19.7698 47.3036 20.0969 48.0363 20.5991C51.9657 23.2943 55.1309 24.2531 59.3353 24.021C62.6493 23.8381 65.2414 22.9241 67.9738 20.9746C72.6485 17.639 75.1495 15.9788 76.5732 15.2662Z" fill="white"/>
  <path d="M17.4717 17.6868C19.7122 15.4463 21.9603 14.0838 24.7227 13.2918C26.891 12.6701 33.4507 12.9002 35.9214 13.6848C37.6988 14.2493 37.8023 14.3374 37.8899 15.3584C37.9402 15.951 37.7835 16.7068 37.5415 17.0377C37.114 17.6215 37.0271 17.6237 34.6349 17.1174C30.7911 16.3037 28.8673 16.1743 26.8488 16.5933C22.5772 17.4798 19.2863 19.9865 17.5655 23.6636C16.7437 25.4201 16.5686 26.2187 16.4504 28.7529C16.213 33.8406 17.7522 38.0131 22.1316 44.1531C25.9726 49.5379 27.2156 52.5514 27.5365 57.2552C27.6643 59.132 27.5662 60.6756 27.2053 62.4564C26.4141 66.3615 24.6302 70.2682 23.3174 70.9708C22.6151 71.3467 20.1481 70.7898 19.9236 70.205C19.8401 69.987 20.3417 68.9063 21.0384 67.8031C24.6145 62.1409 25.0986 56.4681 22.4553 51.2052C22.0187 50.3362 20.5584 48.0679 19.21 46.1644C14.683 39.7739 13.0531 35.9273 12.741 30.8962C12.3974 25.3541 13.844 21.3146 17.4717 17.6868Z" fill="white"/>
  <path d="M74.7104 27.2876C74.0122 25.1562 74.222 24.4473 75.8615 23.3987C77.5236 22.3359 77.6121 22.3359 77.846 23.3937C79.0274 28.7392 80.0731 31.0741 82.4521 33.6796C84.1783 35.5699 86.3585 37.1041 88.5246 37.9524C89.2501 38.2364 91.9941 38.8255 94.6224 39.2614C100.524 40.2402 102.123 40.6945 105.322 42.3022C114.109 46.7188 117.951 54.0628 115.825 62.3773C114.983 65.6667 113.855 67.6542 111.444 70.093C108.917 72.6491 104.755 75.1949 103.874 74.723C103.3 74.4162 102.122 72.372 102.394 72.1544C102.468 72.095 103.604 71.3842 104.919 70.5749C112.197 66.0941 114.698 59.264 111.46 52.7109C109.01 47.7514 103.502 44.4336 95.3356 42.9989C89.4733 41.9688 88.4305 41.6815 85.6208 40.3202C80.5574 37.8671 76.6452 33.194 74.7104 27.2876Z" fill="white"/>
  <path d="M1.55834 52.599C3.19693 48.5826 6.55477 44.9852 10.8226 42.6734L12.7811 41.6123L13.641 42.6152C14.1141 43.1668 14.501 43.8369 14.501 44.1049C14.501 44.3729 13.4909 45.2154 12.256 45.9774C9.08676 47.9331 6.69518 50.391 5.40808 53.0158C4.40616 55.059 4.33799 55.3974 4.33799 58.3318C4.33799 61.2059 4.42055 61.6403 5.33397 63.5681C7.09513 67.2859 10.4602 70.1684 15.2827 72.0903C16.4866 72.5704 19.7232 73.3727 22.475 73.8737C29.8455 75.2152 32.7058 76.4501 36.2854 79.8351C40.0722 83.4168 43.6305 90.8589 42.3143 92.445C42.0889 92.7164 41.3725 93.2099 40.7224 93.5417C39.313 94.2606 39.2311 94.1696 38.5966 91.1729C38.378 90.141 37.7435 88.3116 37.1866 87.1077C34.7844 81.9149 30.758 78.9548 24.6639 77.902C13.5025 75.9732 9.80379 74.4634 5.43247 70.0521C2.05774 66.6467 0.631795 63.0797 0.624603 58.026C0.62085 55.2651 0.729985 54.6297 1.55834 52.599Z" fill="white"/>
  <path d="M89.5002 56.2354C89.8974 52.8313 91.6319 47.7824 92.8596 46.4577C93.259 46.0268 93.8928 45.6741 94.2681 45.6741C95.1227 45.6741 97.3704 46.3348 97.3617 46.5834C97.3579 46.6854 96.7281 47.7358 95.9623 48.9181C93.4829 52.7456 92.4312 56.8458 92.9847 60.5277C93.5294 64.1513 94.2643 65.718 97.5324 70.2216C101.437 75.6017 102.746 78.2537 103.812 82.9378C104.486 85.9026 104.271 90.7323 103.35 93.3124C100.925 100.106 93.4494 104.703 85.9332 104.022C83.4878 103.8 79.6822 102.85 79.1637 102.331C78.9823 102.15 78.9282 101.551 79.0402 100.968C79.4082 99.0572 79.4711 99.0359 82.5456 99.7852C86.6089 100.775 90.4921 100.563 93.3615 99.1935C98.6469 96.6712 101.453 91.0866 100.516 84.9591C99.8593 80.6719 98.4508 77.6762 94.5232 72.2119C91.849 68.4917 90.3883 65.3874 89.685 61.9298C89.2216 59.6515 89.1953 58.8472 89.5002 56.2354Z" fill="white"/>
  <path d="M75.0375 88.8276C76.9294 82.4675 81.7514 77.6196 88.6124 75.1792C91.4071 74.1851 92.5069 74.2243 93.6398 75.3571C94.5545 76.2719 94.8015 77.0676 94.2721 77.3947C94.117 77.4904 92.8859 77.7794 91.5359 78.0364C85.8131 79.1268 81.3583 82.8149 79.2165 88.2353C78.8501 89.1631 78.2021 92.0125 77.7765 94.5676C76.4294 102.66 74.4453 107.104 70.3438 111.217C63.1025 118.48 51.6171 117.86 45.3069 109.866C43.5874 107.688 41.6248 104.222 41.8784 103.812C42.1874 103.312 44.5568 102.221 44.9802 102.383C45.1994 102.467 45.6766 103.151 46.0406 103.903C47.0506 105.989 49.905 109.262 51.653 110.338C55.8633 112.928 61.2384 112.921 65.3615 110.318C66.9963 109.286 69.5461 106.461 70.7003 104.404C72.1722 101.781 72.9049 99.4825 73.7445 94.8541C74.1741 92.4853 74.7561 89.7735 75.0375 88.8276Z" fill="white"/>
  <path d="M12.9077 91.0144C12.3958 88.6278 12.722 83.5594 13.5585 80.9011L14.2323 78.7597L15.3828 78.9698C16.9957 79.2644 18.0395 79.9908 17.7853 80.6422C16.9757 82.7189 16.633 85.1408 16.7399 88.0308C16.8403 90.7379 16.9851 91.444 17.7712 93.0532C20.3204 98.2707 25.7109 100.978 31.7858 100.092C36.3673 99.4243 38.7364 98.2707 45.928 93.2055C51.138 89.5359 57.4781 88.3223 63.2879 89.8821C69.391 91.5203 71.7585 93.3018 71.2729 95.8901C71.0383 97.1406 70.1418 97.3345 69.0883 96.3623C67.7937 95.1674 64.2348 93.4873 61.9889 93.0104C57.5629 92.0707 53.0568 93.0713 48.955 95.9051C42.5658 100.319 41.2199 101.154 38.9668 102.104C35.7062 103.48 32.5826 104.15 29.4368 104.15C24.5276 104.15 20.8649 102.69 17.5824 99.4249C15.2946 97.149 13.5503 94.0104 12.9077 91.0144Z" fill="white"/>
</svg>
