<svg width="75" height="22" viewBox="0 0 75 22" fill="none" xmlns="http://www.w3.org/2000/svg">
<path d="M64.0969 0.890477C63.7127 1.37937 63.3461 2.04286 63.2762 2.3746C63.2064 2.77619 63.0667 2.96826 62.8746 2.96826C62.5604 2.96826 62.1588 3.28254 62.1588 3.52699C62.1588 3.59683 62.4032 3.66667 62.6826 3.66667H63.2064V5.84921C63.2064 8.03175 63.2064 8.03175 62.7699 8.13651C61.8969 8.34604 62.3683 8.55556 63.7302 8.55556C64.8477 8.55556 65.127 8.50318 65.127 8.29366C65.127 8.13651 64.9699 8.03175 64.6905 8.03175H64.254V3.66667H66.6985V5.83175C66.6985 7.85715 66.681 8.01429 66.3493 8.11905C65.6159 8.34604 66.0524 8.55556 67.3096 8.55556C68.6016 8.55556 69.0381 8.34604 68.1826 8.13651L67.7461 8.03175V0H64.8127L64.0969 0.890477ZM66.6985 2.00794V3.14286H64.254V2.39207C64.254 1.37937 64.5159 1.08254 65.4762 0.995239C65.9127 0.960318 66.3667 0.925397 66.4889 0.907937C66.6286 0.890477 66.6985 1.20476 66.6985 2.00794Z" fill="white"/>
<path d="M25.1779 0.366612C25.2303 0.506294 25.4747 0.628517 25.7192 0.663437L26.1906 0.715818V7.97931L25.6668 8.08407C25.3874 8.15392 25.143 8.27614 25.143 8.3809C25.143 8.66027 29.1239 8.60788 30.1017 8.31106C31.1843 7.97931 32.0398 7.31582 32.5112 6.40788C32.8255 5.81423 32.9128 5.39518 32.9128 4.19042C32.9128 2.35709 32.4763 1.44915 31.2716 0.733279C30.5382 0.29677 30.3112 0.27931 27.797 0.209469C25.562 0.139628 25.1081 0.174548 25.1779 0.366612ZM30.3636 1.27455C32.4938 2.68883 32.1271 6.96661 29.8049 7.83963C29.2636 8.04915 28.2509 8.08407 27.6398 7.92693C27.2382 7.82217 27.2382 7.80471 27.2382 4.38249C27.2382 2.47931 27.2906 0.872961 27.3779 0.80312C27.6573 0.506294 29.6827 0.82058 30.3636 1.27455Z" fill="white"/>
<path d="M0 0.73332C0.0174603 0.960304 0.244445 2.14761 0.506349 3.40475C0.873016 5.08094 1.06508 5.65713 1.23968 5.62221C1.37937 5.58729 3.40476 4.74919 5.72699 3.7365C8.06667 2.74126 10.0222 1.92062 10.0571 1.92062C10.0921 1.92062 10.127 4.81904 10.127 8.38094V14.8413H11.3492L11.3841 8.41586L11.4365 1.973L15.8889 3.84126C18.3333 4.87142 20.3587 5.70951 20.3762 5.67459C20.4286 5.65713 21.4762 0.558716 21.4762 0.401573C21.4762 0.384113 16.6397 0.349192 10.7381 0.349192H0V0.73332ZM8.3635 1.46665C8.32858 1.50157 6.82699 2.16507 5.01111 2.93332C1.88572 4.27777 1.74603 4.31269 1.65873 3.96348C1.34445 2.54919 1.22222 1.973 1.22222 1.69364C1.22222 1.41427 1.50159 1.39681 4.83651 1.39681C6.80953 1.39681 8.39842 1.43173 8.3635 1.46665ZM20.2016 1.78094C20.1492 2.00792 20.0095 2.6365 19.8873 3.17777C19.7651 3.7365 19.6079 4.19046 19.5206 4.19046C19.3635 4.19046 13.0603 1.58888 12.9381 1.46665C12.9032 1.43173 14.527 1.39681 16.5698 1.39681H20.2889L20.2016 1.78094Z" fill="white"/>
<path d="M36.4223 3.49207C36.0731 3.87619 35.7588 4.19048 35.7064 4.19048C35.654 4.19048 35.6191 3.91112 35.6191 3.57937C35.6191 2.89842 35.5318 2.88096 34.554 3.17778C33.8032 3.38731 33.5937 3.84127 34.3096 3.70159L34.7461 3.63175V5.81429C34.7461 7.99683 34.7461 7.99683 34.3096 8.10159C33.4016 8.32858 33.908 8.55556 35.3572 8.55556C36.527 8.55556 36.8413 8.50318 36.8413 8.31112C36.8413 8.15397 36.6318 8.03175 36.2826 7.99683L35.7064 7.94445L35.6017 5.11588L36.2302 4.55715C36.5794 4.24286 37.1032 3.9635 37.3826 3.89366C37.8017 3.82381 37.889 3.71905 37.889 3.3C37.889 2.53175 37.208 2.61905 36.4223 3.49207Z" fill="white"/>
<path d="M39.4254 3.26511C38.6048 3.63178 38.4127 3.80638 38.4127 4.13813C38.4127 4.46987 38.5 4.53971 38.9365 4.53971C39.3381 4.53971 39.4603 4.46987 39.4603 4.19051C39.4603 3.8413 40.0365 3.49209 40.5952 3.49209C41.0143 3.49209 41.381 4.0159 41.381 4.62702C41.381 5.20321 41.3635 5.22067 40.0016 5.67464C38.954 6.02384 38.5873 6.21591 38.4302 6.56511C38.1159 7.26353 38.2032 7.66511 38.7445 8.22384C39.373 8.85242 39.8619 8.86988 40.6127 8.29368C41.3111 7.76988 41.5032 7.75241 41.6429 8.22384C41.7476 8.52067 41.8524 8.57305 42.2889 8.48575C42.5857 8.43337 42.8826 8.38099 42.9699 8.38099C43.0572 8.38099 43.127 8.25877 43.127 8.11908C43.127 7.9794 42.9699 7.85718 42.7952 7.85718C42.3238 7.85718 42.254 7.54289 42.254 5.43019C42.254 4.17305 42.1841 3.45717 42.027 3.24765C41.6603 2.7413 40.5603 2.7413 39.4254 3.26511ZM41.381 6.44289C41.381 7.29845 40.7349 7.90956 39.9143 7.82226C39.4429 7.76988 39.373 7.70003 39.3206 7.21114C39.2683 6.66987 39.3206 6.61749 40.1937 6.21591C40.7 5.98892 41.1714 5.7794 41.2587 5.7794C41.3286 5.76194 41.381 6.07622 41.381 6.44289Z" fill="white"/>
<path d="M45.0827 3.16036C43.7557 3.82385 43.424 5.15084 44.3668 6.07624L44.8906 6.60005L44.3668 6.98417C43.7208 7.42068 43.6859 7.71751 44.2097 8.24132L44.5764 8.60799L44.0351 9.07941C43.197 9.77783 43.3367 10.7731 44.297 11.1397C45.4145 11.5588 46.043 11.5239 47.143 10.9826C48.3827 10.354 48.8891 9.77783 48.8891 8.97465C48.8891 8.10164 48.4002 7.85719 46.7065 7.85719C44.9779 7.85719 44.6986 7.71751 45.1525 7.08894C45.3446 6.84449 45.6414 6.63497 45.816 6.63497C46.3748 6.63497 47.6494 5.93655 47.8764 5.53497C47.9986 5.32544 48.1208 4.83655 48.1732 4.45243C48.2605 3.8937 48.3653 3.73655 48.6795 3.70163C48.9589 3.64925 49.0637 3.52703 49.0637 3.21274C49.0637 2.72385 48.6446 2.65401 48.1732 3.07306C47.8764 3.33497 47.8065 3.33497 47.2478 3.07306C46.4621 2.70639 45.9906 2.72385 45.0827 3.16036ZM46.3573 3.42227C47.1256 3.71909 47.4049 5.39528 46.7589 5.83179C46.2002 6.21592 45.7986 6.181 45.3097 5.67465C44.3145 4.69687 45.1176 2.95084 46.3573 3.42227ZM47.7891 9.00957C48.1383 9.91751 46.8287 10.9651 45.6414 10.7381C45.0478 10.6334 44.3494 10.127 44.3494 9.79529C44.3494 9.72545 44.5065 9.44608 44.716 9.18418C45.0478 8.76513 45.17 8.73021 46.3748 8.73021C47.4224 8.73021 47.7018 8.78259 47.7891 9.00957Z" fill="white"/>
<path d="M51.0366 3.24758C49.5175 3.99837 48.9937 5.67457 49.7794 7.28092C50.181 8.11901 51.1239 8.73012 51.9794 8.73012C52.6953 8.71266 53.8128 8.15393 54.3191 7.54282C55.4715 6.19837 54.9128 3.70155 53.3239 3.03806C52.5032 2.68885 52.0493 2.72377 51.0366 3.24758ZM52.9223 3.71901C54.1096 4.50472 54.2667 6.68726 53.2366 7.73488C52.8001 8.15393 52.6255 8.22377 52.1715 8.13647C51.4905 7.99679 51.0017 7.57774 50.7048 6.86187C50.2159 5.72695 50.5302 4.17298 51.3509 3.59679C51.8921 3.21266 52.2239 3.24758 52.9223 3.71901Z" fill="white"/>
<path d="M58.3175 3.3L57.5318 3.84127L57.3747 3.43968C57.2699 3.23016 57.1826 3.02064 57.1477 2.98572C57.0604 2.86349 55.5239 3.35238 55.5239 3.50953C55.5239 3.59683 55.7159 3.66667 55.9604 3.66667H56.3969V5.84921C56.3969 8.03175 56.3969 8.03175 55.9604 8.13651C55.1747 8.32858 55.6985 8.55556 56.9381 8.55556C58.108 8.55556 58.5096 8.34604 57.7937 8.11905C57.4794 8.01429 57.4445 7.85715 57.4445 6.23334V4.45238L58.2127 4.01588C58.8762 3.66667 59.0508 3.63175 59.435 3.80635C59.8889 3.99842 59.8889 4.03334 59.8889 6.00635C59.8889 7.6127 59.8366 8.01429 59.627 8.10159C58.981 8.34604 59.435 8.55556 60.5874 8.55556C61.7921 8.55556 62.2286 8.31112 61.3905 8.10159C60.9715 7.99683 60.9715 7.96191 60.9016 5.76191C60.8493 3.24762 60.7445 3.02064 59.6969 2.86349C59.2255 2.79365 58.9286 2.89841 58.3175 3.3Z" fill="white"/>
<path d="M68.619 3.6492C68.619 3.7365 68.7936 3.84127 68.9857 3.87619C69.3 3.91111 69.527 4.36508 70.2778 6.30317C70.7667 7.6127 71.2381 8.76508 71.3079 8.86984C71.3603 8.9746 71.2032 9.41111 70.9413 9.84762C70.5571 10.4762 70.3476 10.6333 69.9809 10.6508C69.5619 10.6508 69.4921 10.7206 69.4921 11.1746C69.4921 11.6635 69.527 11.6984 70.173 11.6984H70.8365L71.6397 9.9C72.0587 8.92222 72.792 7.15873 73.246 5.97143C73.892 4.27777 74.1365 3.84127 74.3984 3.84127C74.573 3.84127 74.7301 3.75396 74.7301 3.66666C74.7301 3.5619 74.2587 3.49206 73.6825 3.49206C73.1063 3.49206 72.6349 3.5619 72.6349 3.66666C72.6349 3.75396 72.7571 3.84127 72.9143 3.84127C73.0889 3.84127 73.1413 3.94603 73.0889 4.15555C73.019 4.33015 72.7222 5.23809 72.4079 6.19841L71.8317 7.90952L71.1857 6.07619C70.4349 3.96349 70.4174 3.84127 70.8889 3.84127C71.0809 3.84127 71.2381 3.75396 71.2381 3.66666C71.2381 3.5619 70.6794 3.49206 69.9286 3.49206C69.2127 3.49206 68.619 3.5619 68.619 3.6492Z" fill="white"/>
<path d="M5.23807 20.0794H16.2381V9.07942H13.4444V9.69053C13.4444 10.3016 13.4444 10.3016 14.2301 10.3016H15.0159V18.8572H6.28569V10.3016H8.03172V9.07942H5.23807V20.0794Z" fill="white"/>
<path d="M28.3032 11.1571C26.4349 11.8206 25.5095 12.9381 25.3698 14.7365C25.2301 16.3777 25.5444 17.3555 26.5222 18.3333C27.7793 19.5904 29.054 19.8349 30.9571 19.1889C32.2492 18.7698 32.4063 18.6301 32.546 17.7571C32.6508 17.1984 32.6159 17.1111 32.3365 17.1111C32.1444 17.1111 31.9 17.3381 31.7254 17.7222C31.3413 18.5254 30.6952 18.9095 29.7873 18.892C27.919 18.8746 26.5397 17.2333 26.5397 15.0508C26.5397 13.7587 26.8016 12.9904 27.4476 12.2746C28.6524 11 31.0968 11.227 31.7079 12.6762C32.0746 13.5492 32.4762 13.4619 32.4762 12.4841C32.4762 11.7508 32.4413 11.6809 31.7603 11.3317C30.7301 10.8079 29.4555 10.7381 28.3032 11.1571Z" fill="white"/>
<path d="M58.4572 11.035C57.7064 11.227 57.5492 11.6985 58.2302 11.6985H58.6667V15.2604C58.6667 18.7873 58.6667 18.8397 58.2826 18.8921C58.073 18.927 57.881 19.0493 57.8286 19.154C57.7762 19.3286 58.108 19.381 59.0857 19.381C60.4302 19.381 61.0238 19.1016 60.081 18.927L59.5397 18.8223V14.8239C59.5397 11.7334 59.4873 10.8254 59.3302 10.8429C59.208 10.8604 58.8064 10.9477 58.4572 11.035Z" fill="white"/>
<path d="M45.9207 12.6761C45.9207 13.2698 45.9381 13.2872 46.4968 13.2349C46.9857 13.1825 47.0556 13.1126 47.108 12.6063C47.1603 12.065 47.1429 12.0476 46.5492 12.0476C45.9381 12.0476 45.9207 12.065 45.9207 12.6761Z" fill="white"/>
<path d="M49.5874 12.7285C49.5001 12.9206 49.4128 13.2349 49.4128 13.427C49.4128 13.6889 49.2731 13.7762 48.854 13.8285C48.0509 13.8984 47.9286 14.492 48.6969 14.492H49.2382V16.7444C49.2382 18.892 49.2556 19.0317 49.6223 19.2762C50.1636 19.6603 50.6175 19.6254 51.4207 19.119C52.1715 18.6651 52.154 18.6301 51.0715 18.6127L50.3731 18.5952L50.2683 14.492H51.1588C51.8223 14.492 52.0318 14.4222 52.0318 14.2301C52.0318 14.0381 51.8223 13.9682 51.1588 13.9682H50.2858V13.1825C50.2858 12.327 49.9366 12.1 49.5874 12.7285Z" fill="white"/>
<path d="M34.624 14.1079C33.9081 14.4571 33.6986 14.6492 33.6986 14.9635C33.6986 15.5571 34.5192 15.5397 34.6763 14.9286C34.7462 14.6143 34.9382 14.4746 35.3748 14.3873C36.1954 14.2302 36.5271 14.5444 36.4573 15.4175L36.4049 16.1159L35.1827 16.5349C34.5192 16.7619 33.8557 17.0762 33.7509 17.2333C33.4017 17.6873 33.4716 18.6302 33.8732 19.0318C34.5017 19.6603 35.043 19.6603 35.8811 19.0492L36.6494 18.4905L36.7716 18.9619C36.8763 19.3635 36.9462 19.3984 37.4176 19.3111C37.697 19.2587 38.0462 19.2064 38.1684 19.2064C38.57 19.2064 38.4478 18.8571 37.9938 18.6825C37.5922 18.5429 37.5748 18.4556 37.5224 16.4127C37.4525 14.4222 37.4176 14.2651 37.0335 13.9508C36.4748 13.4968 35.7065 13.5492 34.624 14.1079ZM36.4922 17.3381C36.4922 17.9841 36.4224 18.1238 35.9859 18.3857C35.2525 18.8048 34.7811 18.7698 34.5367 18.246C34.3621 17.8794 34.3795 17.7397 34.624 17.4952C34.8509 17.2857 36.0382 16.6921 36.4573 16.6048C36.4748 16.5873 36.4922 16.9191 36.4922 17.3381Z" fill="white"/>
<path d="M41.2064 14.1254C40.5604 14.6667 40.3334 14.6667 40.3334 14.1254C40.3334 13.7413 40.1763 13.7238 39.2683 14.0032C38.5001 14.2301 38.3778 14.492 39.0239 14.492H39.4604V21.6508H39.0239C38.7794 21.6508 38.5874 21.7206 38.5874 21.8254C38.5874 21.9301 39.2334 22 40.1588 22C41.0842 22 41.7302 21.9301 41.7302 21.8254C41.7302 21.7206 41.4509 21.6508 41.1191 21.6508H40.508V19.4682H41.4334C43.1969 19.4508 44.2096 18.473 44.3144 16.7095C44.4017 15.3476 44.0699 14.4571 43.2667 13.9682C42.481 13.4968 41.9223 13.5317 41.2064 14.1254ZM42.9524 15.0508C43.389 15.7667 43.4239 17.4079 43.0398 18.1762C42.5858 19.0492 41.5731 19.2238 40.8223 18.5428C40.5604 18.3333 40.508 17.9841 40.508 16.7794C40.508 15.2952 40.5255 15.2778 41.0842 14.8762C41.9048 14.3 42.5334 14.3698 42.9524 15.0508Z" fill="white"/>
<path d="M53.5682 14.0904C52.7475 14.4571 52.5555 14.6317 52.5555 14.9634C52.5555 15.2952 52.6428 15.365 53.0618 15.365C53.4634 15.365 53.5856 15.2777 53.638 14.9634C53.7253 14.3872 54.9301 14.1079 55.2793 14.5793C55.419 14.7539 55.5237 15.1555 55.5237 15.4698C55.5237 16.0285 55.4888 16.046 54.1444 16.4999C53.0095 16.8666 52.7301 17.0412 52.5555 17.4428C52.2936 18.0714 52.4856 18.7698 53.0269 19.2063C53.6206 19.6777 54.0571 19.6428 54.7555 19.119C55.4539 18.5952 55.646 18.5777 55.7856 19.0491C55.8904 19.346 55.9952 19.3983 56.4317 19.311C56.7285 19.2587 57.0253 19.2063 57.1126 19.2063C57.1999 19.2063 57.2698 19.0841 57.2698 18.9444C57.2698 18.8047 57.1126 18.6825 56.938 18.6825C56.4666 18.6825 56.3968 18.3682 56.3968 16.2555C56.3968 14.9983 56.3269 14.2825 56.1698 14.0729C55.8031 13.5666 54.7031 13.5666 53.5682 14.0904ZM55.5237 17.2682C55.5237 17.8444 55.4364 18.019 54.9999 18.3333C54.6856 18.5603 54.2841 18.6825 54.0047 18.6476C53.6031 18.6126 53.4983 18.5079 53.4634 18.019C53.411 17.4777 53.4634 17.4253 54.3364 17.0237C54.8428 16.7968 55.3142 16.6047 55.4015 16.6047C55.4714 16.5872 55.5237 16.9015 55.5237 17.2682Z" fill="white"/>
<path d="M45.6239 14.0032C44.9255 14.2302 44.8906 14.4572 45.5366 14.527L46.0081 14.5794L46.0604 16.7096C46.1128 18.7874 46.0954 18.8397 45.7287 18.8921C45.5017 18.927 45.3096 19.0493 45.2573 19.154C45.2049 19.3286 45.5366 19.381 46.5319 19.381C47.5271 19.381 47.8588 19.3286 47.8065 19.154C47.7541 19.0493 47.562 18.927 47.3525 18.8921C46.9858 18.8397 46.9684 18.7699 46.9684 16.308C46.9684 13.8112 46.9684 13.7937 46.5842 13.8112C46.3573 13.8286 45.9208 13.9159 45.6239 14.0032Z" fill="white"/>
</svg>
