<svg width="1435" height="748" viewBox="0 0 1435 748" fill="none" xmlns="http://www.w3.org/2000/svg">
  <path fill-rule="evenodd" clip-rule="evenodd" d="M683.5 0.654067C655.713 4.85007 626.724 13.4881 609.5 22.7071C607.85 23.5901 604.25 25.412 601.5 26.757C598.75 28.101 595.15 30.1841 593.5 31.3851C591.85 32.5851 589.375 34.1171 588 34.7891C586.625 35.4611 582.575 38.253 579 40.994C575.425 43.734 570.925 47.0561 569 48.3771C567.075 49.6971 562.95 53.1901 559.833 56.1391C556.716 59.0871 553.341 62.2091 552.333 63.0751C549.319 65.6651 537.36 79.0441 531.949 85.8791C520.003 100.97 505.123 126.799 500.99 139.621C500.302 141.755 499.384 143.954 498.948 144.509C497.02 146.965 488.938 177.615 487.473 188.023C486.584 194.335 485.617 207.825 485.323 218C484.882 233.278 485.159 239.374 486.912 253C491.285 287.004 503.823 319.867 523.108 347.881C525.524 351.39 528.157 355.215 528.959 356.381C531.749 360.433 537.508 367.168 547.075 377.567C556.418 387.723 584.821 411 587.869 411C588.343 411 590.017 412.013 591.59 413.25C595.248 416.128 603.833 421.4 611.5 425.477C614.8 427.231 618.4 429.159 619.5 429.76C631.455 436.296 654.574 444.042 674 448.02C702.245 453.804 732.405 453.816 761 448.054C780.015 444.223 802.826 436.59 815.309 429.882C816.303 429.348 819.903 427.497 823.309 425.769C826.715 424.04 832.576 420.573 836.335 418.063C840.095 415.553 844.613 412.6 846.376 411.5C860.991 402.379 885.996 377.646 898.762 359.683C900.006 357.932 901.801 355.428 902.751 354.118C910.822 342.989 923.79 316.836 929.031 301.119C942.277 261.396 944.583 221.344 935.89 182.016C932.772 167.911 927.521 151.044 923.587 142.5C916.002 126.025 907.084 109.733 902.212 103.45C900.954 101.828 896.692 96.2251 892.74 91.0001C884.532 80.1501 867.575 62.833 858 55.524C854.425 52.795 850.905 49.9861 850.179 49.2811C849.452 48.5771 848.455 48.0001 847.963 48.0001C847.472 48.0001 845.591 46.7341 843.785 45.1871C841.978 43.6401 838.475 41.1481 836 39.6501C833.525 38.1511 829.25 35.5131 826.5 33.7881C803.818 19.5601 779.364 9.89806 751 3.95506C736.276 0.870061 734.274 0.694054 711 0.454054C697.525 0.315054 685.15 0.405067 683.5 0.654067ZM736.3 8.00506C751.538 9.48706 772.203 13.8241 786.896 18.6221C794.264 21.0281 800.789 23.37 801.396 23.826C802.003 24.282 804.705 25.471 807.401 26.468C816.3 29.759 831.991 38.7601 842 46.3141C872.806 69.5651 900.22 105.081 913.156 138.5C914.221 141.25 915.739 144.902 916.53 146.617C917.321 148.331 919.136 153.956 920.562 159.117C921.989 164.277 923.779 170.75 924.54 173.5C926.373 180.126 928.832 200.395 929.625 215.412C930.464 231.306 927.863 260.001 924.45 272.5C917.858 296.644 916.742 299.828 908.678 317.5C903.104 329.716 894.241 344.425 886.032 355.086C884.089 357.609 881.151 361.434 879.503 363.586C877.855 365.739 875.38 368.639 874.003 370.032C872.626 371.424 869.419 374.799 866.876 377.532C861.466 383.345 849.179 394.553 845.664 396.881C844.319 397.772 839.765 401.113 835.542 404.308C831.32 407.502 827.107 410.394 826.182 410.734C825.257 411.074 823.15 412.339 821.5 413.544C819.85 414.749 813.55 418.094 807.5 420.977C801.45 423.86 795.375 426.795 794 427.499C792.625 428.202 785.425 430.816 778 433.307C763.957 438.018 743.471 442.443 728.317 444.037C688.531 448.223 642.121 438.917 605 419.311C582.531 407.443 561.618 389.044 539.859 362C536.107 357.337 525.322 340.379 522.198 334.232C520.489 330.868 518.647 327.302 518.106 326.308C514.385 319.469 508.37 303.707 504.058 289.5C502.124 283.125 499.529 270.651 497.403 257.5C495.632 246.55 495.666 212.994 497.46 201C499.323 188.541 503.399 169.66 505.448 164C506.343 161.525 507.882 157.025 508.865 154C511.919 144.607 521.637 124.231 527.466 115C537.413 99.2491 538.108 98.3051 549.983 84.3621C557.197 75.8911 575.932 57.8821 582 53.5841C595.598 43.9551 611.006 34.0001 612.312 34.0001C612.844 34.0001 615.378 32.7081 617.944 31.1291C620.51 29.5501 623.711 27.9131 625.056 27.4921C626.401 27.0701 629.844 25.657 632.708 24.352C647.332 17.691 682.835 8.97906 700.5 7.71806C711.062 6.96306 726.9 7.09006 736.3 8.00506ZM780.89 81.8311C768.826 85.4201 756.959 95.8431 745.642 112.789C741.989 118.258 739 123.065 739 123.471C739 123.878 737.726 126.099 736.167 128.409C734.609 130.718 732.793 134.159 732.133 136.054C731.473 137.949 729.886 141.081 728.609 143.013C727.331 144.945 725.937 147.645 725.512 149.013C725.087 150.381 723.474 154.2 721.925 157.5C718.836 164.084 715.135 172.984 711.333 182.977C709.977 186.539 708.445 189.965 707.926 190.591C707.407 191.216 703.723 192.728 699.741 193.95C695.758 195.173 690.25 196.986 687.5 197.979C684.75 198.972 675.373 201.189 666.661 202.906C657.949 204.622 649.961 206.486 648.911 207.048C646.248 208.473 646.527 210.843 649.443 211.575C653.431 212.576 675.454 207.551 690.75 202.151C698.588 199.385 704.996 197.431 704.99 197.81C704.97 199.073 702.202 207.445 700.465 211.5C699.522 213.7 697.726 218.875 696.473 223C694.377 229.896 689.293 244.409 684.21 258.009C679.787 269.848 668.988 285.869 657.485 297.66L649.062 306.294L638.781 305.647C587.803 302.439 558.663 304.671 541.933 313.064C537.357 315.36 536.035 317.011 535.339 321.298C533.664 331.619 551.248 334.461 586 329.487C597.584 327.83 607.05 325.824 614 323.555C631.815 317.738 630.588 317.857 649.932 320.073C659.594 321.18 673.125 322.959 680 324.027C686.875 325.094 697.45 326.442 703.5 327.022C709.55 327.601 723.5 329.217 734.5 330.611C758.858 333.699 805.404 334.893 832.5 333.125C853.277 331.77 871.341 327.867 882.24 322.38C890.077 318.434 900 310.611 900 308.379C900 306.391 898.597 306.681 896.406 309.122C893.633 312.212 883.722 318.617 879.843 319.827C870.729 322.669 863.466 323.261 839 323.159C802.102 323.004 751.331 319.994 726 316.46C720.225 315.654 709.2 314.327 701.5 313.51C693.8 312.694 680.442 310.825 671.815 309.357L656.13 306.689L659.837 304.004C663.799 301.134 674.74 290.308 679.218 284.826C693.458 267.396 701.007 252.23 714.473 214C722.169 192.15 721.494 193.214 731.022 187.892C735.685 185.287 741.501 182.208 743.946 181.048C746.391 179.889 749.766 177.908 751.446 176.646C753.126 175.385 755.233 174.083 756.129 173.754C758.756 172.789 774.025 161.638 780 156.321C800.417 138.154 812.436 117.115 812.458 99.5001C812.466 93.5281 812.057 91.8651 809.673 88.1741C804.626 80.3571 793.838 77.9801 780.89 81.8311ZM802.748 87.9711C806.263 90.5701 808 94.4961 808 99.8351C808 103.541 805.264 115.779 804.051 117.5C803.663 118.05 802.533 120.75 801.54 123.5C800.546 126.25 798.668 129.932 797.366 131.683C796.065 133.434 794.999 135.234 794.997 135.683C794.978 139.034 765.258 166 761.583 166C761.186 166 758.979 167.289 756.68 168.865C754.381 170.441 750.7 172.644 748.5 173.761C746.3 174.878 740.113 178.096 734.75 180.913C729.387 183.729 725 185.81 725 185.537C725 184.505 733.256 164.24 736.066 158.377C737.68 155.01 739 151.946 739 151.568C739 150.996 745.254 137.348 747.999 131.928C756.287 115.568 761.236 108.088 769.622 99.2501C778.722 89.6601 787.417 84.7851 794.541 85.2801C797.836 85.5091 800.677 86.4401 802.748 87.9711ZM582.605 312.004C601.734 313.494 623.38 316.098 624.374 317.029C624.854 317.478 623.279 318.391 620.874 319.057C618.469 319.723 612.406 321.534 607.402 323.081C596.915 326.325 574.606 329 558.049 329C544.926 329 538.329 327.155 537.339 323.21C536.797 321.052 537.32 320.064 540.421 317.383C543.322 314.875 545.644 313.919 550.828 313.099C565.325 310.806 566.638 310.761 582.605 312.004ZM787.76 635.083C781.76 636.498 770.871 642.576 766 647.23C754.923 657.813 748.162 673.058 747.253 689.5C746.715 699.215 748.035 706.332 752.358 717.034C757.555 729.902 772.355 743.315 784.382 746.058C807.964 751.437 826.905 744.881 838.677 727.264C843.135 720.593 842.584 718.222 838.076 724.673C833.13 731.751 828.422 735.672 820 739.728C813.377 742.918 811.564 743.348 804.5 743.407C797.328 743.467 795.724 743.105 789 739.913C783.921 737.502 779.319 734.254 774.744 729.85C768.827 724.156 767.592 722.301 764.805 714.924C761.752 706.842 761.622 705.892 761.595 691.5C761.57 678.212 761.835 675.758 763.921 670C767.594 659.857 769.345 656.982 776.194 649.842C785.084 640.573 793.049 636.57 802.5 636.621C818.955 636.711 832.028 647.163 837.182 664.351C838.915 670.129 838.994 670.228 838.491 666C838.197 663.525 837.673 655.271 837.326 647.659C836.768 635.403 836.555 634.155 835.458 636.764C833.814 640.675 831.29 641.16 824.851 638.799C812.534 634.284 797.524 632.781 787.76 635.083ZM907.038 636.402C906.468 637.903 906 639.354 906 639.627C906 639.9 904.924 642.458 903.609 645.312C899.511 654.204 892 672.2 892 673.127C892 673.612 890.843 676.37 889.43 679.255C888.016 682.14 885.811 687.2 884.531 690.5C881.258 698.934 877.208 708.714 874.798 714C873.669 716.475 872.18 720.093 871.491 722.039C869.147 728.659 863.212 739.492 860.592 741.934C859.149 743.279 856.081 744.678 853.74 745.059C851.374 745.444 857.455 745.749 867.5 745.748C881.447 745.747 884.067 745.56 879.132 744.921C872.634 744.078 868.99 741.981 869.013 739.095C869.034 736.485 872.732 725.468 875.319 720.306C876.644 717.663 878.277 713.804 878.948 711.731L880.167 707.963L902.719 708.231L925.269 708.5L927.488 715C928.708 718.575 930.673 724.158 931.854 727.407C934.424 734.478 934.665 741.204 932.414 743.072C931.542 743.796 928.954 744.695 926.664 745.069C924.375 745.443 931.725 745.754 943 745.76C954.275 745.765 961.836 745.446 959.802 745.051C955.868 744.286 953.421 742.74 951.015 739.5C949.442 737.382 943.929 724.546 941.35 717C940.504 714.525 938.795 710.25 937.552 707.5C936.309 704.75 934.727 700.7 934.036 698.5C933.345 696.3 931.731 692.025 930.447 689C929.163 685.975 926.042 678.1 923.511 671.5C920.98 664.9 917.839 657.025 916.531 654C915.223 650.975 913.184 645.575 911.998 642C909.328 633.945 908.379 632.874 907.038 636.402ZM1277.73 637.717C1274.28 645.877 1269 658.767 1266.97 663.998C1265.79 667.021 1264.48 669.946 1264.05 670.498C1263.62 671.049 1262.69 673.3 1261.99 675.5C1261.3 677.7 1259.49 682.2 1257.98 685.5C1255.47 690.984 1251.94 699.381 1245.98 714C1234.93 741.13 1232.8 744.1 1223.5 745.31C1221.85 745.525 1228.6 745.709 1238.5 745.719C1250.59 745.732 1254.62 745.497 1250.78 745.004C1247.64 744.601 1243.87 743.491 1242.42 742.539C1240.06 740.99 1239.84 740.379 1240.42 736.772C1240.78 734.553 1242.15 730.434 1243.47 727.619C1244.79 724.803 1246.81 720.025 1247.96 717C1251.63 707.311 1249.78 707.923 1274.47 708.23L1296.19 708.5L1297.69 712.5C1305.02 732.022 1306.29 738.386 1303.65 742.41C1302.44 744.256 1300.95 744.981 1297.77 745.267C1295.42 745.478 1302.73 745.684 1314 745.725C1328.66 745.778 1333.37 745.534 1330.53 744.87C1328.35 744.359 1325.48 742.942 1324.15 741.721C1321.75 739.517 1317.03 730.622 1317.01 728.277C1317 727.605 1315.89 724.68 1314.54 721.777C1313.19 718.875 1310.98 713.575 1309.64 710C1304.18 695.428 1299.88 684.332 1298.59 681.5C1297.84 679.85 1296.91 677.375 1296.52 676C1296.13 674.625 1294.56 670.575 1293.03 667C1289.58 658.967 1285.37 648.269 1282.79 641C1280.18 633.65 1279.61 633.279 1277.73 637.717ZM0.584463 635.864C0.291463 636.339 2.34646 636.999 5.15246 637.332C11.7035 638.107 14.7545 640.145 15.5005 644.242C15.8265 646.034 15.9595 668.747 15.7965 694.715C15.5365 736.12 15.3065 742.124 13.9235 743.507C13.0555 744.374 9.45545 745.458 5.92345 745.915C1.22945 746.523 5.55748 746.746 22.0005 746.746C38.4435 746.746 42.7715 746.523 38.0775 745.915C34.5455 745.458 30.9455 744.374 30.0775 743.508C28.7385 742.17 28.4555 738.011 28.2035 715.966L27.9055 690H48.3304C70.4474 690 70.2635 689.956 71.9835 695.686C72.5315 697.509 72.8054 693.572 72.7624 684.5C72.7164 674.825 72.5105 672.418 72.0985 676.707C71.1995 686.045 71.3025 686.006 48.0005 685.73L28.5005 685.5V662.5V639.5L53.5005 639.255C72.1255 639.073 79.1385 639.334 81.0005 640.279C83.7455 641.672 86.0474 645.828 88.3254 653.5L89.8094 658.5L89.8614 652C89.9264 643.892 88.6475 637.025 86.8625 635.894C85.0815 634.765 1.28146 634.736 0.584463 635.864ZM103 636C103 636.553 105.615 637 108.845 637C118.671 637 118 633.072 118 690.638C118 732.178 117.761 740.945 116.583 742.555C115.546 743.974 113.473 744.653 108.833 745.094C105.35 745.424 112.4 745.677 124.5 745.655C136.6 745.633 143.575 745.46 140 745.272C135.421 745.03 133.131 744.44 132.25 743.273C130.626 741.122 130.422 641.95 132.036 638.934C132.896 637.328 134.168 637 139.536 637C143.179 637 146 636.564 146 636C146 635.364 138.167 635 124.5 635C110.833 635 103 635.364 103 636ZM157 636C157.825 636.533 159.684 636.976 161.13 636.985C164.805 637.006 174.679 641.703 176.492 644.292C177.783 646.135 178 653.093 178 692.675C178 725.876 177.67 739.631 176.829 741.477C175.534 744.318 174.089 744.829 166 745.306C162.975 745.484 169.05 745.632 179.5 745.635C190.643 745.638 195.409 745.404 191.025 745.07C184.332 744.56 183.417 744.239 182.289 742C181.332 740.101 181.033 728.809 181.041 695L181.051 650.5L184.775 654.649C186.824 656.931 190.154 660.981 192.176 663.649C194.199 666.317 199.002 672.55 202.851 677.5C210.165 686.905 211.566 688.698 223.309 703.664C227.264 708.704 232.075 714.897 234 717.426C239.249 724.322 251.64 740.025 254.969 744L257.9 747.5L257.95 694.473C258.008 632.788 257.31 637 267.499 637C271.01 637 274.16 636.55 274.5 636C274.904 635.347 268.657 635 256.5 635C244.343 635 238.096 635.347 238.5 636C238.84 636.55 241.991 637 245.502 637C255.521 637 255 634.627 255 680.223C255 704.797 254.642 719 254.023 719C253.486 719 252.269 717.763 251.319 716.25C250.369 714.737 248.221 711.878 246.546 709.895C242.404 704.993 238.92 700.691 232.859 693C227.325 685.978 223.46 681.223 219.452 676.5C218.051 674.85 215.141 671.25 212.983 668.5C210.825 665.75 208.484 662.808 207.78 661.963C207.077 661.118 203.814 657.068 200.532 652.963C197.249 648.858 193.065 643.7 191.233 641.5C189.4 639.3 187.455 636.938 186.911 636.25C186.197 635.347 181.701 635.004 170.712 635.015C160.521 635.026 155.995 635.351 157 636ZM286 636C286 636.561 288.768 637 292.301 637C295.868 637 299.122 637.521 299.801 638.2C301.573 639.972 301.523 740.924 299.75 743.273C298.869 744.44 296.579 745.03 292 745.272C288.425 745.46 304.435 745.701 327.578 745.807L369.657 746L370.839 740.88C371.489 738.064 372.668 734.351 373.459 732.63C375.285 728.656 378.27 716.937 377.622 716.288C377.352 716.019 376.653 717.531 376.068 719.649C375.483 721.767 373.207 726.727 371.011 730.672C367.439 737.088 366.412 738.142 361.26 740.672C355.644 743.43 355.027 743.508 336.396 743.825C319.714 744.108 317.083 743.941 315.646 742.503C314.162 741.019 314 735.914 314 690.5C314 633.141 313.386 637 322.512 637C325.466 637 328.16 636.55 328.5 636C328.905 635.345 321.677 635 307.559 635C293.853 635 286 635.364 286 636ZM388 636C388 636.556 390.667 637 394 637C398.788 637 400.43 637.43 402.13 639.13C404.258 641.258 404.259 641.293 403.815 691.158C403.305 748.438 404.118 744.097 393.715 745.098C390.297 745.426 397.625 745.677 410 745.655C422.375 745.633 429.575 745.465 426 745.283C415.229 744.733 416 748.951 416 690.544C416 632.858 415.284 637 425.271 637C428.357 637 431.16 636.55 431.5 636C431.905 635.345 424.51 635 410.059 635C396.02 635 388 635.364 388 636ZM442 636C442.825 636.533 444.763 636.976 446.306 636.985C449.733 637.003 457.69 640.473 460.75 643.283L463 645.349V693.064C463 748.607 463.742 744.734 453 745.283C449.425 745.465 454.825 745.629 465 745.646C476.047 745.664 480.565 745.44 476.213 745.088C471.329 744.694 468.612 744.005 467.978 743C467.419 742.115 467.025 722.934 467.016 696.189L467 650.878L471.043 655.689C476.38 662.038 477.516 663.469 484 672.002C490.529 680.594 495.071 686.398 498.474 690.5C499.843 692.15 504.578 698.225 508.995 704C513.412 709.775 518.127 715.85 519.474 717.5C522.861 721.65 533.506 735.514 537.708 741.25C544.22 750.137 544 751.824 544 692.7C544 652.578 544.297 639.103 545.2 638.2C545.877 637.523 549.12 637 552.641 637C556.074 637 559.16 636.55 559.5 636C559.904 635.347 553.657 635 541.5 635C529.343 635 523.096 635.347 523.5 636C523.84 636.55 526.948 637 530.405 637C540.671 637 540.067 634.23 539.762 679.952L539.5 719.22L534.26 712.86C531.378 709.362 527.89 705.15 526.51 703.5C521.071 696.995 510.422 683.67 509.042 681.643C507.259 679.024 501.647 672.258 498.88 669.392C497.761 668.232 496.092 666.142 495.172 664.746C492.536 660.746 473.875 637.637 472.162 636.25C471.077 635.372 466.136 635.005 455.559 635.015C445.467 635.026 440.995 635.35 442 636ZM572.417 635.865C572.711 636.341 574.832 636.982 577.129 637.29C582.915 638.066 585.736 641.201 587.052 648.317C588.655 656.991 587.847 734.455 586.108 738.771C584.547 742.647 582.097 744.173 576 745.071C573.525 745.435 581.625 745.733 594 745.733C606.375 745.733 614.415 745.44 611.864 745.083C606.622 744.348 604.604 742.991 602.188 738.573C600.789 736.015 600.451 731.751 600.169 713.139C599.967 699.762 600.201 690.922 600.752 691.139C601.259 691.337 603.841 693.975 606.49 697C609.139 700.025 614.701 706.238 618.85 710.807C622.998 715.377 626.931 719.877 627.589 720.807C628.247 721.738 631.519 725.425 634.859 729C644.59 739.414 645.293 743.876 637.398 745.108C635.254 745.443 644.3 745.721 657.5 745.727C671.867 745.733 679.293 745.445 676 745.009C668.279 743.985 659.897 738.7 651.919 729.823C639.934 716.488 628.606 703.769 620.236 694.25L611.971 684.851L621.669 674.175C646.337 647.019 658.546 637 666.971 637C668.637 637 670 636.55 670 636C670 635.368 663 635 651 635C639 635 632 635.368 632 636C632 636.55 634.588 637.014 637.75 637.032C641.164 637.051 644.275 637.649 645.406 638.505C647.254 639.904 647.225 640.073 644.426 644.223C640.986 649.325 602.726 688 601.119 688C599.626 688 599.601 653.963 601.089 647.026C601.976 642.892 602.85 641.494 605.82 639.476C607.824 638.114 610.683 637 612.173 637C613.663 637 615.16 636.55 615.5 636C615.905 635.345 608.491 635 594 635C581.809 635 572.122 635.388 572.417 635.865ZM971.436 635.895C971.812 636.503 974.723 637 977.905 637C987.667 637 987 633.036 987 691.174C987 749.093 987.787 744.621 977.484 745.254C974.193 745.456 981.4 745.619 993.5 745.615C1005.6 745.611 1012.35 745.456 1008.5 745.271C1003.44 745.027 1001.15 744.473 1000.25 743.276C999.335 742.062 999 735.511 999 718.84V696.063L1006.75 696.648C1017.84 697.486 1032.23 695.51 1039.15 692.201C1045.75 689.041 1051.43 682.749 1053.15 676.678C1054.7 671.2 1054.66 659.657 1053.07 654.017C1051.07 646.954 1045.24 641.948 1035 638.496C1026.61 635.669 1026.13 635.626 998.626 635.21C978.433 634.905 970.941 635.094 971.436 635.895ZM1067 636C1067 636.564 1069.83 637 1073.47 637C1083.93 637 1083.45 634.103 1082.6 691.999C1082.03 731.641 1081.63 740.902 1080.46 742.702C1079.28 744.504 1077.88 744.969 1072.76 745.259C1069.32 745.455 1076.4 745.615 1088.5 745.615C1100.6 745.615 1107.7 745.455 1104.27 745.26C1094.35 744.695 1095 748.522 1095 690.432C1095 632.873 1094.28 637 1104.27 637C1107.36 637 1110.16 636.55 1110.5 636C1110.91 635.345 1103.51 635 1089.06 635C1075.02 635 1067 635.364 1067 636ZM1122.59 638.25C1120.86 649.492 1121.51 658.872 1123.4 649.954C1123.69 648.553 1125.47 645.63 1127.35 643.457L1130.77 639.506L1146.38 639.146L1162 638.786L1161.99 685.643C1161.99 713.573 1161.59 733.944 1161 736.074C1159.52 741.39 1155.82 744.342 1149.69 745.087C1146.84 745.434 1155.3 745.716 1168.5 745.712C1181.7 745.709 1189.96 745.433 1186.85 745.099C1180.34 744.4 1177.55 742.37 1175.85 737.1C1175.06 734.654 1174.55 718.356 1174.26 686.25L1173.83 639L1187.17 639.006C1206.43 639.014 1209.93 640.319 1212.08 648.295C1214.29 656.553 1214.85 656.482 1214.36 648C1214.09 643.325 1213.67 638.487 1213.42 637.25L1212.96 635H1168.03H1123.09L1122.59 638.25ZM1343.5 636C1343.84 636.55 1346.77 637 1350 637C1359.52 637 1359.01 634.292 1358.94 684.973C1358.88 727.141 1358.29 742.037 1356.64 743.701C1356.2 744.14 1352.84 744.769 1349.17 745.098C1345.5 745.427 1361.36 745.652 1384.42 745.598L1426.33 745.5L1427.69 741C1428.44 738.525 1430.46 732.109 1432.18 726.742C1433.91 721.375 1435.1 716.771 1434.84 716.509C1434.58 716.248 1432.85 719.63 1430.99 724.025C1426.97 733.523 1423.29 738.28 1417.65 741.239C1413.9 743.21 1411.65 743.457 1394.2 743.817C1376.83 744.174 1374.7 744.038 1372.95 742.452C1371.07 740.75 1371 738.987 1371.03 690.595C1371.06 650.525 1371.33 640.15 1372.39 638.75C1373.4 637.421 1375.18 637 1379.8 637C1383.15 637 1386.16 636.55 1386.5 636C1386.91 635.345 1379.49 635 1365 635C1350.51 635 1343.1 635.345 1343.5 636ZM1024.25 639.121C1031.91 641.72 1036.46 645.78 1039.79 653C1044.19 662.524 1042.91 676.283 1036.8 685.189C1035.78 686.669 1031.92 689.342 1028.23 691.13C1022.12 694.082 1020.62 694.386 1011.91 694.44C1005.18 694.482 1001.82 694.091 1000.66 693.128C999.192 691.914 999 688.768 999 665.878C999 651.645 999.113 639.993 999.25 639.985C999.387 639.977 1001.3 639.321 1003.5 638.529C1009.25 636.457 1017.05 636.68 1024.25 639.121ZM906.782 660.75C907.919 663.913 910.493 670.775 912.5 676C914.508 681.225 917.685 689.663 919.561 694.75L922.971 704H902.918H882.865L883.539 701.75C883.909 700.513 885.329 696.8 886.695 693.5C888.061 690.2 890.059 685.25 891.136 682.5C892.214 679.75 894.253 675.025 895.667 672C897.082 668.975 898.832 664.835 899.557 662.8C901.333 657.818 902.9 655 903.893 655C904.346 655 905.645 657.587 906.782 660.75ZM1276 656.265C1276 656.96 1276.83 659.098 1277.85 661.015C1278.87 662.932 1280.73 667.65 1281.98 671.5C1283.24 675.35 1284.62 678.957 1285.06 679.517C1285.5 680.076 1287 683.928 1288.39 688.078C1289.78 692.227 1291.61 696.945 1292.46 698.561C1295.34 704.089 1295.64 704 1274 704C1258.43 704 1254 703.717 1254 702.722C1254 702.019 1255.5 698.306 1257.34 694.472C1259.18 690.637 1261.27 685.718 1261.99 683.539C1262.71 681.361 1264.35 677.471 1265.65 674.894C1266.94 672.318 1268 669.861 1268 669.435C1268 669.008 1269.42 665.586 1271.15 661.83C1274.08 655.477 1276 653.27 1276 656.265Z" fill="white"/>
</svg>
