<svg width="392" height="126" viewBox="0 0 392 126" fill="none" xmlns="http://www.w3.org/2000/svg">
  <path fill-rule="evenodd" clip-rule="evenodd" d="M81.8181 16.6225V32.9022H78.9091H76V18.8603V4.8183H74.8811H73.7622V18.8603V32.9022H70.7412H67.7202V20.8702V8.83821L66.6293 8.87021L65.5384 8.90221L65.5099 20.9022L65.4815 32.9022H62.4609H59.4405V22.6645V12.4267H58.3776H57.3146V22.6645V32.9022H54.2377H51.1608V24.2309V15.5596H50.1538H49.1468V24.2309V32.9022H46.0699H42.993V25.5735V18.2449H41.986H40.979V25.5735V32.9022H37.847H34.7151L34.6862 26.7204L34.6573 20.5386L33.7342 20.5061L32.8111 20.4736V26.6879V32.9022H29.6234H26.4358L26.4067 27.6714L26.3776 22.4407H25.5384H24.6992L24.6702 27.6714L24.6411 32.9022H21.3974H18.1538V28.4826V24.0631H17.3146H16.4755V28.4826V32.9022H13.1748H9.87407V29.0421V25.1819H9.09085H8.30764V29.0421V32.9022H4.95099H1.59435V29.4896V26.077H0.867073H0.1398V31.5596V37.0421H195.386H390.632L390.603 31.8113L390.573 26.5805L387.245 26.5509L383.916 26.5212V29.7117V32.9022H383.077H382.238V29.7117V26.5211L379.021 26.5509L375.804 26.5805L375.774 29.7414L375.745 32.9022H374.909H374.073L374.044 29.7414L374.014 26.5805H370.825H367.636L367.607 29.7414L367.577 32.9022H366.684H365.79V29.4896V26.077H362.601H359.413V29.4896V32.9022H358.462H357.511V29.0421V25.1819H354.378H351.245V29.0421V32.9022H350.239H349.233L349.204 28.4547L349.175 24.0071L346.126 23.9773L343.077 23.9476V28.4249V32.9022H342.014H340.951V27.6435V22.3847H337.93H334.909V27.6435V32.9022H333.79H332.671V26.6924V20.4826H329.706H326.741V26.6924V32.9022H325.566H324.392V25.5735V18.2449H321.483H318.573V25.5735V32.9022H317.343H316.112V24.2309V15.5596H313.259H310.406V24.2309V32.9022H309.119H307.832V22.6645V12.4267H305.035H302.238V22.6645V32.9022H300.952H299.665L299.637 20.9022L299.608 8.90221L296.839 8.87234L294.07 8.84235V20.8723V32.9022H292.727H291.385V18.8603V4.8183H288.643H285.902V18.8603V32.9022H284.504H283.105V16.6225V0.342773H280.42H277.734V16.6225V32.9022H276.28H274.825V18.8582V4.81427L272.168 4.84426L269.511 4.87424L269.482 18.8882L269.454 32.9022H268H266.545V20.8722V8.84213L263.944 8.87223L261.343 8.90221L261.314 20.9022L261.286 32.9022H259.776H258.266V22.6645V12.4267H255.692H253.119V22.6645V32.9022H251.552H249.986V24.2309V15.5596H247.469H244.951V24.2309V32.9022H243.329H241.706V25.5735V18.2449H239.301H236.895V25.5735V32.9022H235.162H233.428L233.4 26.7204L233.371 20.5386L231.049 20.5084L228.727 20.478V26.6902V32.9022H226.881H225.035V27.6411V22.38L222.825 22.4104L220.615 22.4407L220.586 27.6714L220.557 32.9022H218.656H216.755V28.4267V23.9512H214.629H212.504V28.4267V32.9022H210.49H208.476V29.0421V25.1819H206.406H204.336V29.0421V32.9022H202.266H200.196V29.4896V26.077H198.182H196.168V29.4896V32.9022H194.042H191.916V29.7134V26.5246H189.958H188V29.7134V32.9022H185.818H183.636V29.8253V26.7484H181.734H179.832V29.8253V32.9022H177.594H175.357V29.7134V26.5246H173.51H171.664V29.7134V32.9022H169.371H167.077V29.4896V26.077H165.287H163.497V29.4896V32.9022H161.147H158.797V29.0392V25.1761L157.091 25.207L155.385 25.2379L155.355 29.07L155.326 32.9022H152.866H150.406V28.4826V24.0631H148.839H147.273V28.4826V32.9022H144.699H142.126V27.6402V22.3782L140.643 22.4095L139.161 22.4407L139.132 27.6714L139.103 32.9022H136.474H133.846V26.6924V20.4826H132.392H130.937V26.6924V32.9022H128.252H125.566V25.5735V18.2449H124.168H122.769V25.5735V32.9022H120.028H117.287V24.2309V15.5596H115.944H114.601V24.2309V32.9022H111.86H109.119V22.6645V12.4267H107.776H106.434V22.6645V32.9022H103.637H100.84L100.812 20.9022L100.783 8.90221L99.5244 8.87055L98.2657 8.83889V20.8705V32.9022H95.4126H92.5594V18.8603V4.8183H91.3286H90.0979V18.8603V32.9022H87.1888H84.2797V16.6225V0.342773H83.0489H81.8181V16.6225ZM0.1398 43.14V45.2099H45.7342H91.3286V43.14V41.07H45.7342H0.1398V43.14ZM272.252 43.1399V45.2099H331.443H390.634L390.604 43.1679L390.573 41.126L331.413 41.0979L272.252 41.0698V43.1399ZM0.1398 51.4209V53.4922L4.6433 53.4629L9.1468 53.4337L9.17734 51.3917L9.20778 49.3498H4.67384H0.1398V51.4209ZM25.6503 51.4197V53.4896H29.7342H33.8181V51.4197V49.3498H29.7342H25.6503V51.4197ZM50.2657 51.421V53.4924L54.3776 53.463L58.4895 53.4337L58.52 51.3917L58.5504 49.3498H54.4081H50.2657V51.421ZM74.9065 51.3917L74.937 53.4337L83.1328 53.4623L91.3286 53.4911V51.4204V49.3498H83.1023H74.876L74.9065 51.3917ZM272.252 51.4204V53.4911L280.448 53.4623L288.643 53.4337L288.674 51.3917L288.704 49.3498H280.478H272.252V51.4204ZM305.259 51.4197V53.4896H309.343H313.427V51.4197V49.3498H309.343H305.259V51.4197ZM329.874 51.421V53.4924L333.986 53.463L338.098 53.4337L338.128 51.3917L338.159 49.3498H334.017H329.874V51.421ZM354.515 51.3917L354.546 53.4337L358.657 53.463L362.769 53.4924V51.421V49.3498H358.627H354.485L354.515 51.3917ZM379.217 51.4207V53.4916L384.895 53.4627L390.573 53.4337L390.604 51.3917L390.634 49.3498H384.926H379.217V51.4207ZM0.1398 59.5863V61.6575H4.89762H9.65533L9.62489 59.6155L9.59435 57.5735L4.86707 57.5443L0.1398 57.5151V59.5863ZM25.2027 59.5875V61.6575H29.7342H34.2657V59.5875V57.5176H29.7342H25.2027V59.5875ZM49.8181 59.5863V61.6575H54.4081H58.998L58.9676 59.6155L58.937 57.5735L54.3776 57.5443L49.8181 57.5151V59.5863ZM74.4335 59.5875V61.6575H83.1049H91.7762V59.5875V57.5176H83.1049H74.4335V59.5875ZM271.804 59.5875V61.6575H280.476H289.147V59.5875V57.5176H280.476H271.804V59.5875ZM304.811 59.5875V61.6575H309.343H313.874V59.5875V57.5176H309.343H304.811V59.5875ZM329.427 59.5875V61.6575H334.014H338.601V59.5875V57.5176H334.014H329.427V59.5875ZM354.117 57.5922C354.076 57.6332 354.042 58.5646 354.042 59.6622V61.6575H358.629H363.217V59.5875V57.5176H358.704C356.222 57.5176 354.158 57.5512 354.117 57.5922ZM378.769 59.5865V61.6575H384.702H390.634L390.604 59.6155L390.573 57.5735L384.671 57.5446L378.769 57.5156V59.5865ZM0.1398 67.8672V69.9372H5.23071H10.3216V67.8672V65.7973H5.23071H0.1398V67.8672ZM24.4195 67.8672V69.9372H29.7342H35.0489V67.8672V65.7973H29.7342H24.4195V67.8672ZM49.0603 67.8393L49.0909 69.8812L54.3776 69.9103L59.6643 69.9394V67.8684V65.7973H54.347H49.0299L49.0603 67.8393ZM73.6757 67.8393L73.7063 69.8812L83.1328 69.9099L92.5594 69.9384V67.8679V65.7973H83.1023H73.6453L73.6757 67.8393ZM271.021 67.8672V69.9372H280.42H289.818V67.8672V65.7973H280.42H271.021V67.8672ZM304.028 67.8672V69.9372H309.343H314.657V67.8672V65.7973H309.343H304.028V67.8672ZM328.669 67.8393L328.699 69.8812L333.986 69.9103L339.273 69.9394V67.8684V65.7973H333.956H328.638L328.669 67.8393ZM353.371 67.8684V69.9394L358.657 69.9103L363.944 69.8812L363.975 67.8393L364.005 65.7973H358.688H353.371V67.8684ZM377.986 67.8681V69.9391L384.28 69.9101L390.573 69.8812L390.604 67.8393L390.634 65.7973H384.31H377.986V67.8681ZM0.1398 76.034V78.105H5.62489H11.1099L11.0794 76.0631L11.0489 74.0211L5.59435 73.992L0.1398 73.963V76.034ZM23.7482 76.0351V78.105H29.7342H35.7202V76.0351V73.9652H29.7342H23.7482V76.0351ZM48.3636 76.0341V78.105H54.4081H60.4525L60.4221 76.0631L60.3916 74.0211L54.3776 73.9921L48.3636 73.9632V76.0341ZM72.979 76.0351V78.105H83.1049H93.2307V76.0351V73.9652H83.1049H72.979V76.0351ZM270.35 76.0351V78.105H280.476H290.601V76.0351V73.9652H280.476H270.35V76.0351ZM303.357 76.0351V78.105H309.343H315.329V76.0351V73.9652H309.343H303.357V76.0351ZM327.972 76.0351V78.105H334.014H340.056V76.0351V73.9652H334.014H327.972V76.0351ZM352.587 76.0351V78.105H358.629H364.671V76.0351V73.9652H358.629H352.587V76.0351ZM377.315 76.0351V78.105H383.972H390.629V76.0351V73.9652H383.972H377.315V76.0351ZM0.165199 84.2868L0.195744 86.3288H6.06987H11.944L11.9745 84.2868L12.005 82.2449H6.06987H0.134766L0.165199 84.2868ZM22.8531 84.3148V86.3847H29.7342H36.6153V84.3148V82.2449H29.7342H22.8531V84.3148ZM47.4685 84.3157V86.3864L54.3776 86.3577L61.2867 86.3288L61.3172 84.2868L61.3476 82.2449H54.4081H47.4685V84.3157ZM72.1093 84.2868L72.1398 86.3288L83.1328 86.3573L94.1258 86.3859V84.3154V82.2449H83.1023H72.0788L72.1093 84.2868ZM269.455 84.3154V86.3859L280.448 86.3573L291.441 86.3288L291.471 84.2868L291.502 82.2449H280.478H269.455V84.3154ZM302.462 84.3148V86.3847H309.343H316.224V84.3148V82.2449H309.343H302.462V84.3148ZM327.077 84.3157V86.3864L333.986 86.3577L340.895 86.3288L340.926 84.2868L340.956 82.2449H334.017H327.077V84.3157ZM351.718 84.2868L351.748 86.3288L358.657 86.3577L365.566 86.3864V84.3157V82.2449H358.627H351.687L351.718 84.2868ZM376.42 84.3156V86.3864L383.497 86.3575L390.573 86.3288L390.604 84.2868L390.634 82.2449H383.527H376.42V84.3156ZM298.83 100.376C295.399 100.912 293.378 103.519 292.542 108.486C292.246 110.244 292.242 116.279 292.536 118.135C292.972 120.888 293.831 122.978 295.011 124.155C295.804 124.945 296.596 125.364 297.765 125.613C299.301 125.94 301.202 125.625 302.316 124.859C302.744 124.564 303.037 124.238 303.827 123.173C304.013 122.922 304.018 122.935 304.024 123.699C304.028 124.13 304.062 124.671 304.1 124.902L304.169 125.322H305.329H306.49V118.553V111.783H302.965H299.441V113.07V114.357H301.467H303.494L303.443 116.678C303.374 119.807 303.075 121.074 302.169 122.076C301.538 122.775 301.007 123.004 299.882 123.061C299.072 123.102 298.837 123.071 298.346 122.86C296.96 122.264 296.12 120.674 295.672 117.799C295.424 116.206 295.386 110.619 295.614 109.042C296.199 104.982 297.436 103.131 299.673 102.97C301.681 102.825 303.031 104.017 303.386 106.246L303.519 107.084H305.02H306.522L306.455 106.329C306.19 103.343 304.562 101.192 302.077 100.545C301.237 100.326 299.672 100.245 298.83 100.376ZM340.787 100.377C337.969 100.815 336.137 102.763 335.187 106.332C334.383 109.353 334.244 114.556 334.867 118.273C335.557 122.384 337.149 124.677 339.888 125.505C340.932 125.82 342.98 125.774 344.095 125.41C346.893 124.496 348.434 121.978 349.079 117.266C349.348 115.302 349.349 110.485 349.081 108.539C348.429 103.801 346.813 101.298 343.916 100.543C343.089 100.328 341.609 100.249 340.787 100.377ZM215.932 100.548C212.917 101.278 211.054 103.947 210.314 108.596C210.213 109.234 210.11 110.796 210.074 112.24C209.846 121.536 211.885 125.457 217.091 125.735C220.541 125.918 223.036 124.366 224.123 121.36C224.421 120.537 224.517 120.129 224.762 118.634L224.822 118.267L222.898 118.298L220.975 118.329L220.782 119.28C220.434 120.992 219.764 121.981 218.709 122.341C216.712 123.021 215.171 121.809 214.526 119.047C214.172 117.535 214.06 116.06 214.061 112.958C214.062 107.43 214.698 104.98 216.387 103.987C216.854 103.712 217.038 103.671 217.818 103.671C218.567 103.671 218.794 103.717 219.207 103.951C220.141 104.481 220.723 105.568 220.861 107.041L220.927 107.755H222.83H224.732L224.67 106.936C224.417 103.597 222.61 101.187 219.877 100.543C218.975 100.33 216.82 100.333 215.932 100.548ZM314.545 112.944V125.322H316.056H317.566V119.715V114.108L319.608 114.158C321.916 114.213 322.591 114.38 323.245 115.056C324.048 115.886 324.277 116.966 324.281 119.951C324.283 121.933 324.406 124.071 324.565 124.922L324.64 125.322H326.138C327.263 125.322 327.636 125.287 327.634 125.182C327.633 125.105 327.581 124.69 327.518 124.259C327.455 123.828 327.359 121.94 327.305 120.063C327.199 116.428 327.123 115.888 326.556 114.771C326.216 114.099 325.469 113.354 324.861 113.08L324.408 112.876L324.931 112.601C326.642 111.701 327.632 109.678 327.632 107.084C327.632 104.387 326.635 102.444 324.737 101.447C323.404 100.746 323.001 100.693 318.545 100.626L314.545 100.567V112.944ZM356.729 110.133C356.73 119.166 356.742 119.728 356.95 120.734C357.479 123.3 358.86 124.861 361.154 125.484C362.76 125.921 365.278 125.8 366.834 125.211C368.327 124.645 369.523 123.334 370.073 121.659C370.581 120.11 370.615 119.315 370.579 109.657L370.546 100.65L369.069 100.619L367.592 100.588L367.554 110.13C367.518 118.831 367.498 119.731 367.318 120.343C367.017 121.373 366.57 122.084 365.966 122.495C365.273 122.967 364.73 123.104 363.571 123.101C362.723 123.098 362.544 123.059 361.885 122.727C360.739 122.152 360.108 121.117 359.861 119.411C359.799 118.981 359.752 114.831 359.751 109.629L359.748 100.595H358.238H356.727L356.729 110.133ZM378.769 112.945V125.322H380.28H381.79V120.075V114.829L384.224 114.779C386.479 114.732 386.724 114.706 387.561 114.432C389.724 113.723 391.079 112.272 391.707 109.993C391.855 109.454 391.908 108.846 391.911 107.643C391.916 105.899 391.737 105.032 391.123 103.819C390.674 102.934 389.595 101.879 388.686 101.435C387.227 100.723 386.952 100.686 382.657 100.624L378.769 100.568V112.945ZM0.1398 113.014V125.322H2.16822H4.19664L4.12268 115.448C4.08207 110.017 4.02568 105.271 3.99748 104.902C3.96123 104.428 3.97734 104.297 4.05219 104.455C4.14607 104.653 4.74142 108.272 6.87323 121.603L7.46847 125.326L9.47966 125.296L11.4907 125.266L11.9095 123.14C12.4166 120.566 13.6507 113.795 14.5709 108.539C14.9426 106.415 15.2625 104.603 15.282 104.511C15.3013 104.418 15.2934 109.063 15.2642 114.832L15.2112 125.322H17.3538H19.4964V113.014V100.706H16.2646H13.0328L11.7354 107.28C11.0218 110.895 10.3084 114.583 10.15 115.476C9.64985 118.293 9.71989 118.168 9.49119 116.65C8.87759 112.578 6.9812 101.536 6.78629 100.902C6.7308 100.722 6.47177 100.706 3.433 100.706H0.1398V113.014ZM27.4405 113.014V125.322H33.7601H40.0796L40.1348 125.07C40.1842 124.845 40.6433 121.68 40.6433 121.565C40.6433 121.539 38.6545 121.518 36.2237 121.518H31.8041V117.993V114.469H35.7202H39.6363V112.511V110.553H35.7202H31.8041V107.588V104.622H35.944H40.0839V102.664V100.706H33.7622H27.4405V113.014ZM47.0209 113.014V125.322H48.9882H50.9554L50.9182 116.332L50.8811 107.343L51.6216 109.479C52.2844 111.391 53.7476 115.467 56.4053 122.804L57.297 125.266L59.7114 125.296L62.1258 125.326V113.016V100.706H60.1549H58.1839L58.247 109.014C58.2817 113.583 58.3392 117.498 58.3747 117.713C58.4101 117.929 58.1446 117.274 57.7846 116.259C57.4246 115.243 55.9799 111.329 54.5744 107.56L52.0188 100.706H49.5198H47.0209V113.014ZM73.8169 100.846C73.7543 101.021 68.1678 125.161 68.1678 125.257C68.1678 125.295 69.1612 125.313 70.3756 125.296L72.5832 125.266L73.1662 122.301C73.4868 120.67 73.7521 119.298 73.7557 119.252C73.7593 119.206 75.0451 119.168 76.6132 119.168H79.4642L79.5188 119.42C79.5488 119.558 79.8046 120.855 80.0871 122.301C80.3698 123.747 80.6264 125.018 80.6576 125.126C80.7092 125.304 80.92 125.322 83.0145 125.322H85.3147L85.2503 125.014C85.215 124.845 83.9248 119.326 82.3832 112.751C80.8417 106.175 79.5804 100.775 79.5804 100.751C79.5804 100.726 78.2949 100.706 76.7238 100.706C74.5397 100.706 73.8553 100.739 73.8169 100.846ZM91.1049 113.012V125.322H93.3431H95.5814L95.5529 113.042L95.5244 100.762L93.3147 100.732L91.1049 100.702V113.012ZM114.154 113.014V125.322H116.056H117.958V119.839V114.357H121.93H125.902V112.678V111H121.93H117.958V107.532V104.063H122.21H126.462V102.385V100.706H120.308H114.154V113.014ZM132.951 113.014V125.322H134.853H136.755V113.014V100.706H134.853H132.951V113.014ZM145.035 113.014V125.322H146.769H148.503L148.492 117.574C148.486 113.312 148.447 109.02 148.405 108.035C148.363 107.05 148.335 106.232 148.341 106.217C148.348 106.202 148.69 107.133 149.101 108.287C149.512 109.441 151.101 113.733 152.632 117.825L155.415 125.266L157.554 125.296L159.692 125.327V113.017V100.706H157.942H156.192L156.266 109.126C156.306 113.757 156.366 117.898 156.4 118.329L156.46 119.112L156.104 118.105C155.738 117.067 153.416 110.96 150.905 104.427L149.475 100.706H147.255H145.035V113.014ZM171.612 100.844C171.586 100.922 170.302 106.374 168.758 112.958C167.215 119.543 165.925 125.018 165.891 125.126C165.836 125.307 165.975 125.322 167.769 125.322H169.707L170.248 122.72C170.545 121.29 170.864 119.779 170.956 119.364L171.123 118.609H174.071C176.782 118.609 177.025 118.624 177.081 118.804C177.115 118.912 177.422 120.334 177.763 121.965C178.105 123.596 178.412 125.018 178.445 125.126C178.499 125.303 178.698 125.322 180.511 125.322C181.615 125.322 182.516 125.309 182.514 125.294C182.512 125.278 181.19 119.753 179.576 113.014L176.642 100.762L174.15 100.732C172.215 100.709 171.648 100.734 171.612 100.844ZM188.448 113.012V125.322H190.255H192.063L191.989 116.511C191.948 111.665 191.888 107.347 191.856 106.916L191.798 106.133L192.341 107.658C192.64 108.497 194.24 112.814 195.897 117.252L198.909 125.322L201.063 125.322L203.217 125.322V113.014V100.706H201.483H199.748L199.757 108.175C199.762 112.283 199.804 116.399 199.849 117.322C199.895 118.245 199.923 119.015 199.911 119.032C199.899 119.05 199.686 118.471 199.437 117.745C199.082 116.714 195.747 107.943 193.298 101.602L192.973 100.762L190.71 100.732L188.448 100.702V113.012ZM231.413 113.014V125.322H233.371H235.329V113.014V100.706H233.371H231.413V113.014ZM247.247 101.014C246.86 102.55 241.594 125.05 241.594 125.167C241.594 125.293 241.952 125.322 243.483 125.322C245.353 125.322 245.373 125.319 245.423 125.07C245.451 124.932 245.768 123.421 246.127 121.713L246.779 118.609H249.754H252.728L253.271 121.21C253.569 122.641 253.889 124.151 253.982 124.567L254.15 125.322H256.152C257.253 125.322 258.154 125.294 258.154 125.261C258.154 125.227 256.892 119.928 255.35 113.485C253.808 107.041 252.491 101.53 252.422 101.238L252.297 100.706H249.811H247.325L247.247 101.014ZM264.196 113.014V125.322H270.172H276.148L276.212 124.902C276.247 124.671 276.328 124.055 276.392 123.532C276.456 123.009 276.533 122.467 276.564 122.329L276.62 122.077H272.31H268V111.392V100.706H266.098H264.196V113.014ZM343.509 103.338C344.495 103.875 345.149 104.923 345.594 106.682C346.477 110.17 346.356 117.071 345.359 120.051C344.638 122.204 343.483 123.157 341.702 123.067C341.019 123.033 340.777 122.966 340.327 122.688C338.991 121.861 338.235 120.106 337.8 116.818C337.584 115.183 337.616 110.122 337.852 108.592C338.287 105.775 339.043 104.121 340.233 103.386C340.824 103.02 341.159 102.947 342.074 102.983C342.752 103.01 343.034 103.08 343.509 103.338ZM322.393 103.441C323.981 104.012 324.704 105.607 324.493 108.07C324.36 109.61 323.743 110.641 322.624 111.19C322.001 111.496 321.933 111.505 319.776 111.542L317.566 111.58V107.359V103.139L319.72 103.197C321.33 103.24 322.005 103.302 322.393 103.441ZM386.539 103.503C387.419 103.843 388.163 104.586 388.506 105.468C388.826 106.29 388.941 108.241 388.727 109.203C388.442 110.486 387.721 111.43 386.657 111.916C386.15 112.148 385.899 112.175 383.944 112.211L381.79 112.251V107.696V103.141L383.832 103.193C385.615 103.24 385.959 103.279 386.539 103.503ZM175.726 112.343C176.063 113.912 176.326 115.21 176.311 115.226C176.296 115.243 175.281 115.243 174.054 115.226L171.824 115.196L172.462 112.175C172.813 110.513 173.283 108.172 173.506 106.972C173.729 105.772 173.941 104.664 173.977 104.511C174.019 104.329 174.23 105.153 174.578 106.86C174.873 108.306 175.389 110.774 175.726 112.343ZM250.102 106.137C250.294 107.119 250.8 109.555 251.226 111.55C251.652 113.545 252 115.194 252 115.214C252 115.235 250.993 115.252 249.762 115.252C248.53 115.252 247.524 115.207 247.524 115.152C247.524 115.098 247.874 113.373 248.302 111.32C249.045 107.754 249.65 104.636 249.65 104.373C249.65 104 249.789 104.543 250.102 106.137ZM77.6878 110.273C78.1823 112.796 78.6146 114.974 78.6482 115.112L78.7096 115.364H76.6199C74.6823 115.364 74.5346 115.35 74.5884 115.168C74.6943 114.811 76.2016 107.043 76.3307 106.189C76.4005 105.727 76.4888 105.224 76.5268 105.07C76.612 104.727 76.5186 104.308 77.6878 110.273Z" fill="white"/>
</svg>
