<svg width="401" height="92" viewBox="0 0 401 92" fill="none" xmlns="http://www.w3.org/2000/svg">
  <path fill-rule="evenodd" clip-rule="evenodd" d="M2.18587 0.742008C0.246042 1.1647 -0.10932 2.02846 0.65134 4.47217C2.56024 10.6042 8.81273 15.9488 18.4065 19.6483C21.6164 20.8864 25.3182 22.0054 30.3129 23.2474C32.4393 23.7761 34.5415 24.3676 34.9845 24.5615L35.7899 24.9143L35.0354 25.2001C34.6204 25.3573 31.5758 25.8502 28.2696 26.2955C17.4722 27.7491 12.1908 28.812 7.99311 30.3758C2.76965 32.3218 1.03344 34.972 2.85954 38.2109C4.52874 41.1714 8.48604 42.52 14.3036 42.1111C19.9224 41.7162 29.5861 39.573 37.6811 36.927C42.2463 35.4343 46.097 32.4494 50.8017 26.7559C55.2317 21.3948 54.771 18.0777 54.9594 56.6835L55.1205 89.6538L56.0245 90.4316C56.6712 90.988 57.3152 91.209 58.2885 91.209C60.0186 91.209 60.9677 90.5401 61.3888 89.0249C61.6075 88.2369 61.7222 76.8103 61.7232 55.689L61.7251 23.5518L62.45 23.5628C62.9778 23.5705 64.0074 24.5879 66.2356 27.3029C69.3984 31.1568 72.8928 34.2723 75.58 35.6341C78.3865 37.0562 90.0071 40.2889 96.5203 41.4591C100.303 42.1389 106.701 42.2342 108.992 41.645C111.076 41.1092 113.316 39.219 114.054 37.3729C114.768 35.5887 114.322 34.2716 112.44 32.6159C109.428 29.9644 102.953 28.311 87.016 26.1241C81.6673 25.3902 81.0558 25.2565 81.0558 24.8189C81.0558 24.6537 81.1089 24.5183 81.174 24.5183C81.2388 24.5183 84.0504 23.7989 87.4223 22.9194C102.888 18.8851 111.497 13.7799 115.06 6.52831C115.553 5.52537 116.022 4.03047 116.103 3.20634C116.235 1.84643 116.166 1.65409 115.349 1.11863C113.41 -0.15139 106.776 0.816753 97.3257 3.74953C93.0775 5.06788 84.7221 8.01193 72.1959 12.6046C69.1835 13.709 65.9357 14.8218 64.9788 15.0779C63.3483 15.5135 63.1994 15.5042 62.6227 14.9275C62.2506 14.555 61.8582 13.4416 61.6301 12.1103C61.3066 10.2221 61.3208 9.88732 61.7306 9.75394C61.9935 9.66856 62.7522 9.05836 63.4166 8.39758C64.9978 6.82567 65.0681 5.39295 63.6431 3.77015C62.2265 2.15636 60.3201 1.51942 57.5095 1.72046C55.6653 1.85255 54.9659 2.06551 53.8837 2.82488C51.3288 4.6178 51.2966 7.60083 53.816 9.08736C54.8492 9.69692 54.9594 9.89796 54.9594 11.1735C54.9594 12.9631 54.1192 15.0918 53.3115 15.3482C52.5415 15.5924 50.9499 15.0695 38.0451 10.3335C21.4614 4.24729 11.77 1.28681 6.95506 0.835761C5.80327 0.727832 4.57095 0.594773 4.21655 0.540003C3.86216 0.484911 2.94846 0.576086 2.18587 0.742008ZM281.274 1.64281C278.482 1.94502 276.125 3.08101 274.605 4.85685L273.488 6.16264L271.668 5.06723C270.668 4.46444 268.436 3.50339 266.709 2.93088C263.838 1.97981 263.127 1.87671 258.414 1.73141C253.93 1.59352 252.891 1.66086 250.424 2.25044C244.95 3.5588 240.308 6.33081 237.53 9.95047C234.778 13.5373 233.78 16.2983 233.536 21.0057C233.137 28.6909 236.001 34.6582 242.165 38.9867L244.303 40.488L242.712 41.4436C237.993 44.2778 235.519 49.6343 236.67 54.5233C237.241 56.9506 238.104 58.5232 239.912 60.435L241.474 62.0874L239.473 63.0787C235.021 65.285 232.517 68.8074 232.231 73.266C231.65 82.3275 238.079 88.6699 249.907 90.7012C256.759 91.8781 265.615 91.6101 271.081 90.0604C275.615 88.7746 279.55 86.6663 282.073 84.171C284.641 81.6316 285.79 79.454 286.522 75.7397C286.957 73.5302 286.986 72.6078 286.693 70.3039C286.041 65.1781 284.321 62.0378 280.938 59.7916C277.032 57.1997 272.427 56.2486 261.636 55.8059C253.929 55.4899 252.09 55.1226 250.401 53.5632C248.13 51.4672 247.924 47.3936 249.979 45.1876C251.453 43.6038 252.276 43.4089 257.77 43.3428C262.113 43.291 263.41 43.1534 266.008 42.4707C270.59 41.2661 273.418 39.7129 276.332 36.7981C280.398 32.7326 281.946 28.8703 281.902 22.9075C281.874 19.1802 281.299 16.4491 280 13.8865L279.179 12.2656L280.073 11.8987C280.564 11.6967 282.634 11.445 284.672 11.3397L288.377 11.148V6.31535V1.48269L285.96 1.43984C284.631 1.41632 282.522 1.5075 281.274 1.64281ZM154.673 2.11835C150.866 2.95214 146.055 5.71191 143.945 8.27193L142.994 9.425L142.802 8.03126C142.696 7.2648 142.514 5.73156 142.398 4.62392L142.186 2.61031H136.429H130.671V33.056V63.5018H137.276H143.88V40.7673V18.0329L145.572 16.3476C148.887 13.044 152.91 11.4834 157.596 11.6822C162.247 11.8793 165.166 14.0759 166.666 18.5075C167.175 20.0108 167.237 22.2302 167.324 41.8354L167.421 63.5018H174.043H180.666L180.564 40.8688L180.463 18.2359L182.41 16.3028C188.242 10.5114 198.228 9.99203 201.789 15.2951C204.013 18.6077 203.946 17.8222 204.053 41.8354L204.149 63.5018H210.743H217.337V43.722C217.337 19.1177 217.104 16.386 214.558 11.0594C212.489 6.7287 208.662 3.64418 203.653 2.27009C201.395 1.65055 200.542 1.58708 196.409 1.73045C192.564 1.86383 191.308 2.03523 189.405 2.68538C185.349 4.07106 181.559 6.85725 179.086 10.272L178.096 11.638L177.064 9.80807C173.929 4.25406 168.562 1.6164 160.501 1.66923C158.359 1.68341 155.736 1.88541 154.673 2.11835ZM324.944 1.99528C321.125 2.73532 317.43 4.67482 314.427 7.51546C313.477 8.41304 312.681 9.08993 312.656 9.02002C312.631 8.95011 312.45 7.51546 312.253 5.83208L311.896 2.7714L306.177 2.68345L300.458 2.59549V33.0486V63.5018H306.902H313.345V40.873V18.244L315.566 16.1098C318.501 13.2885 321.581 11.9383 325.606 11.7073C330.411 11.4315 333.763 13.0643 335.489 16.5213C337.1 19.7472 337.186 21.0939 337.186 43.0645V63.5018H343.644H350.102L349.983 40.8688C349.849 15.5006 349.897 16.0728 347.479 11.0762C345.341 6.65685 341.325 3.44185 336.335 2.15443C334.163 1.59449 327.494 1.50106 324.944 1.99528ZM391.957 2.14605C388.748 2.99853 385.597 4.78726 383.06 7.19747C381.751 8.44075 380.668 9.33092 380.653 9.17531C380.638 9.02002 380.456 7.51546 380.25 5.83208L379.875 2.7714L374.156 2.68345L368.438 2.59549V33.0486V63.5018H374.881H381.325V41.6259V19.7504L383.084 18.1425C385.719 15.7339 388.993 14.4519 392.96 14.2754C395.2 14.1755 396.55 14.2809 397.842 14.6562C398.823 14.9416 399.789 15.1752 399.986 15.1752C400.243 15.1752 400.321 13.2486 400.259 8.49004L400.172 1.80487L396.95 1.74011C394.945 1.69984 393.059 1.8532 391.957 2.14605ZM262.914 11.9022C263.971 12.285 265.348 13.0079 265.975 13.5092C268.605 15.6143 269.944 20.3255 269.246 25.0187C268.285 31.4764 264.324 34.1779 256.375 33.7951C251.279 33.5496 248.907 32.0985 247.006 28.0623C246.265 26.4891 246.172 25.8928 246.175 22.7464C246.181 16.1269 248.256 13.0247 253.743 11.4299C255.883 10.8078 260.554 11.0485 262.914 11.9022ZM260.669 65.7412C265.606 65.9661 267.21 66.1588 268.958 66.7371C272.874 68.0319 274.712 70.6161 274.203 74.1107C273.734 77.3351 271.557 79.6125 267.655 80.9612C265.717 81.6307 264.924 81.7048 259.703 81.7048C254.453 81.7048 253.696 81.6329 251.712 80.948C246.553 79.1663 244.006 75.2983 244.97 70.7056C245.457 68.3815 246.41 67.1304 248.395 66.2061C250.271 65.3324 251.045 65.3031 260.669 65.7412Z" fill="white"/>
</svg>
