<svg width="75" height="17" viewBox="0 0 75 17" fill="none" xmlns="http://www.w3.org/2000/svg">
  <path d="M15.3082 5.23087L5.88779 0L4.71023 0.65433V1.96173L3.53267 1.3074L2.35512 1.96173V3.26913L1.17756 2.6148L0 3.26913V13.7309L1.17756 14.3852L2.35512 13.7309V15.0383L3.53267 15.6926L4.71023 15.0383V16.3457L5.88779 17L15.3082 11.7691V10.4617L14.1307 9.8074L15.3082 9.15307V7.84567L14.1307 7.19134L15.3082 6.53701V5.23087ZM2.35512 12.4235L1.17756 13.0778V3.92346L2.35512 4.57779V12.4235ZM5.88779 13.0765V11.7691L10.598 9.15433L11.7756 9.80866L5.88779 13.0765ZM9.42046 8.5L5.88779 10.4617V6.53827L9.42046 8.5ZM10.598 7.84567L5.88779 5.23087V3.92346L11.7756 7.1926L10.598 7.84567ZM3.53267 2.6148L4.71023 3.26913V4.57654L3.53267 3.92221V2.6148ZM3.53267 5.23087L4.71023 5.8852V11.1161L3.53267 11.7704V5.23087ZM3.53267 13.0765L4.71023 12.4222V13.7296L3.53267 14.3839V13.0765ZM14.1307 11.1148L5.88779 15.6913V14.3839L12.9531 10.4605L14.1307 11.1148ZM14.1307 8.5L12.9531 9.15433L11.7756 8.5L12.9531 7.84567L14.1307 8.5ZM12.9531 6.53827L5.88779 2.6148V1.3074L14.1307 5.88394L12.9531 6.53827Z" fill="white"/>
  <path d="M20.2004 13.0765H18.8409V3.92348H22.9886C24.8923 3.92348 26.0476 5.03458 26.0476 6.66915C26.0476 8.30371 24.8923 9.41482 22.9886 9.41482H20.2017V13.0765H20.2004ZM24.6882 6.66915C24.6882 5.75434 24.1439 5.03458 22.9886 5.03458H20.2017V8.30371H22.9886C24.1439 8.30371 24.6882 7.58395 24.6882 6.66915ZM26.5513 8.04198C26.6874 6.95605 27.6386 6.08025 29.5567 6.08025C30.7264 6.08025 31.7182 6.38099 32.2219 7.19135C32.4391 7.54494 32.5621 8.01556 32.5621 8.56419V13.0753H31.2563V12.2247C30.8481 12.7481 30.033 13.2703 28.8764 13.2703C27.4345 13.2703 26.2111 12.5506 26.2111 11.0469C26.2111 9.87033 27.0407 9.03354 28.8083 8.88883L31.2563 8.69254V8.56167C31.2563 7.64687 30.8481 7.05797 29.5567 7.05797C28.5231 7.05797 27.9657 7.45057 27.8977 8.03821H26.5513V8.04198ZM31.255 10.1346V9.61111L28.9431 9.80741C27.9906 9.88543 27.5156 10.3309 27.5156 11.0494C27.5156 11.9654 28.196 12.2914 29.0111 12.2914C30.2358 12.2926 31.255 11.5074 31.255 10.1346ZM36.5854 7.32348C35.6342 7.32348 35.0219 7.84694 35.0219 9.02348V13.0778H33.7161V6.27655H35.0219V7.06174C35.3621 6.47285 35.9051 6.14568 36.9256 6.14568H37.2933V7.32222H36.5854V7.32348ZM37.6871 8.04198C37.8232 6.95605 38.7744 6.08025 40.6925 6.08025C41.8622 6.08025 42.854 6.38099 43.3577 7.19135C43.5749 7.54494 43.6979 8.01556 43.6979 8.56419V13.0753H42.3921V12.2247C41.9839 12.7481 41.1687 13.2703 40.0121 13.2703C38.5703 13.2703 37.3469 12.5506 37.3469 11.0469C37.3469 9.87033 38.1764 9.03354 39.9441 8.88883L42.3921 8.69254V8.56167C42.3921 7.64687 41.9839 7.05797 40.6925 7.05797C39.6589 7.05797 39.1015 7.45057 39.0334 8.03821H37.6871V8.04198ZM42.3921 10.1346V9.61111L40.0802 9.80741C39.1276 9.88543 38.6527 10.3309 38.6527 11.0494C38.6527 11.9654 39.3331 12.2914 40.1482 12.2914C41.3716 12.2926 42.3921 11.5074 42.3921 10.1346ZM50.1156 12.1617C49.7074 12.8161 48.8922 13.2728 47.8036 13.2728C45.6827 13.2728 44.5274 11.6383 44.5274 9.67655C44.5274 7.71482 45.6827 6.08025 47.8036 6.08025C48.8909 6.08025 49.7074 6.53828 50.1156 7.19135V3.92348H51.42V13.0778H50.1143V12.1617H50.1156ZM48.0077 7.12718C46.5803 7.12718 45.8319 8.23828 45.8319 9.67655C45.8319 11.1148 46.5803 12.2272 48.0077 12.2272C49.4352 12.2272 50.1836 11.0506 50.1836 9.67655C50.1836 8.30371 49.4352 7.12718 48.0077 7.12718ZM56.4521 12.0309V13.0765H52.264V12.0309H53.7058V7.32348H52.264V6.27781H55.0103V12.0321H56.4521V12.0309ZM55.0103 5.23088H53.7045V3.92348H55.0103V5.23088ZM61.9448 12.0309C61.6726 12.4235 60.9256 13.0111 59.7009 13.0111C57.7161 13.0111 56.4247 11.442 56.4247 9.54568C56.4247 7.64938 57.7161 6.08025 59.7009 6.08025C60.9242 6.08025 61.6726 6.66915 61.9448 7.06049V6.27529H63.2506V12.3555C63.2506 14.5136 61.9592 15.6247 59.905 15.6247C58.3271 15.6247 57.1718 14.8395 56.8996 13.6629H58.259C58.382 14.1335 58.8845 14.6432 59.9037 14.6432C61.3992 14.6432 61.9435 13.7284 61.9435 12.3543V12.0309H61.9448ZM59.8383 7.12718C58.5469 7.12718 57.7304 8.23828 57.7304 9.54694C57.7304 10.8543 58.5456 11.9667 59.8383 11.9667C61.1977 11.9667 62.0141 10.8556 62.0141 9.54694C62.0128 8.23828 61.1977 7.12718 59.8383 7.12718ZM65.7522 7.06174C66.1604 6.34198 66.9756 6.08151 67.792 6.08151C68.7432 6.08151 69.6277 6.47411 70.0359 7.25804C70.4441 6.53828 71.1912 6.08151 72.4159 6.08151C73.9114 6.08151 75 6.93214 75 8.63088V13.0765H73.6942V8.82718C73.6942 7.71607 73.2179 7.12718 72.1438 7.12718C71.2593 7.12718 70.3761 7.65064 70.3761 9.02348V13.0778H69.0703V8.82844C69.0703 7.71733 68.5941 7.12844 67.5199 7.12844C66.6354 7.12844 65.7522 7.6519 65.7522 9.02473V13.0791H64.4464V6.27655H65.7522V7.06174Z" fill="white"/>
</svg>
