<svg width="56" height="8" viewBox="0 0 56 8" fill="none" xmlns="http://www.w3.org/2000/svg">
<path fill-rule="evenodd" clip-rule="evenodd" d="M11.5385 8C9.49269 8 7.65998 6.47361 7.65998 4.00541C7.65998 1.52639 9.49269 0 11.5385 0C13.595 0 15.4277 1.52639 15.4277 4.00541C15.4277 6.47361 13.595 8 11.5385 8ZM11.5385 1.43978C10.3771 1.43978 9.18369 2.26252 9.18369 3.99459C9.18369 5.72666 10.3771 6.54939 11.5385 6.54939C12.7106 6.54939 13.904 5.72666 13.904 3.99459C13.904 2.26252 12.7106 1.43978 11.5385 1.43978Z" fill="white"/>
<path fill-rule="evenodd" clip-rule="evenodd" d="M6.87025 7.83762H5.22934L3.74826 4.88227H1.98108V7.83762H0.5V0.162381H4.45151C5.92193 0.162381 6.85959 1.1908 6.85959 2.52233C6.85959 3.59405 6.24159 4.40595 5.25065 4.69824L6.87025 7.83762ZM1.98108 1.46143V3.59405H4.17447C4.92034 3.59405 5.3572 3.16103 5.3572 2.53315C5.3572 1.88363 4.92034 1.46143 4.17447 1.46143H1.98108Z" fill="white"/>
<path d="M22.7838 6.9189C22.2033 7.53621 21.3308 8 20.1228 8C18.0131 8 16.2549 6.45196 16.2549 4.00541C16.2549 1.55886 18.077 0 20.1015 0C21.3328 0 22.2123 0.451595 22.7879 1.07743L21.6862 2.0567C21.3507 1.69871 20.8416 1.43978 20.1015 1.43978C18.972 1.43978 17.7786 2.26252 17.7786 4.00541C17.7786 5.64005 18.9081 6.53856 20.1228 6.53856C20.8254 6.53856 21.3319 6.28457 21.68 5.93778L22.7838 6.9189Z" fill="white"/>
<path d="M35.3728 0.162382V1.58051H32.986V7.83762H31.5049V1.58051H29.1182V0.162382H35.3728Z" fill="white"/>
<path d="M49 6.43028V7.83759L44 7.83762V0.162382L49 0.162353V1.56966L45.4704 1.56969V3.32341L48.6251 3.3234V4.65493L45.4704 4.65494V6.43031L49 6.43028Z" fill="white"/>
<path d="M22.4618 3.9993L26.2014 0.161678L28.5 0.16709L24.7014 4.00471L28.5 7.84233L26.2014 7.83692L22.4618 3.9993Z" fill="white"/>
<path fill-rule="evenodd" clip-rule="evenodd" d="M42.8702 7.83759H41.2293L39.7483 4.88225H37.9811V7.83759H36.5V0.162354H40.4515C41.9219 0.162354 42.8596 1.19077 42.8596 2.5223C42.8596 3.59402 42.2416 4.40593 41.2506 4.69821L42.8702 7.83759ZM37.9811 1.46141V3.59402H40.1745C40.9203 3.59402 41.3572 3.161 41.3572 2.53312C41.3572 1.8836 40.9203 1.46141 40.1745 1.46141H37.9811Z" fill="white"/>
<path d="M55.2741 6.43029V7.8376L50.2741 7.83762V0.162387L55.2741 0.162357V1.56966L51.7445 1.56969V3.32341L54.8992 3.32341V4.65494L51.7445 4.65494V6.43032L55.2741 6.43029Z" fill="white"/>
</svg>
